<svg width="700" height="291" viewBox="0 0 700 291" fill="none" xmlns="http://www.w3.org/2000/svg">
<path d="M217.156 146V36.9091H293.222V58.3224H243.524V80.6946H289.333V102.161H243.524V124.587H293.222V146H217.156ZM309.735 146V64.1818H335.036V79.0966H335.889C337.38 73.6989 339.813 69.6861 343.186 67.0582C346.56 64.3949 350.484 63.0632 354.958 63.0632C356.166 63.0632 357.409 63.152 358.687 63.3295C359.965 63.4716 361.155 63.7024 362.256 64.022V86.6605C361.013 86.2344 359.379 85.897 357.355 85.6484C355.367 85.3999 353.591 85.2756 352.029 85.2756C348.939 85.2756 346.151 85.968 343.666 87.353C341.215 88.7024 339.28 90.6023 337.86 93.0526C336.475 95.4673 335.782 98.3082 335.782 101.575V146H309.735ZM372.869 146V64.1818H398.917V146H372.869ZM385.92 54.647C382.262 54.647 379.119 53.4396 376.491 51.0249C373.864 48.5746 372.55 45.6271 372.55 42.1825C372.55 38.7734 373.864 35.8615 376.491 33.4467C379.119 30.9964 382.262 29.7713 385.92 29.7713C389.613 29.7713 392.756 30.9964 395.348 33.4467C397.976 35.8615 399.29 38.7734 399.29 42.1825C399.29 45.6271 397.976 48.5746 395.348 51.0249C392.756 53.4396 389.613 54.647 385.92 54.647ZM453.689 147.545C445.059 147.545 437.655 145.769 431.476 142.218C425.333 138.667 420.61 133.731 417.307 127.41C414.005 121.053 412.353 113.702 412.353 105.357C412.353 96.9766 414.005 89.6257 417.307 83.3047C420.645 76.9482 425.386 71.9943 431.53 68.4432C437.709 64.892 445.077 63.1165 453.635 63.1165C461.199 63.1165 467.787 64.4837 473.398 67.218C479.044 69.9524 483.447 73.8232 486.608 78.8303C489.804 83.8018 491.491 89.6435 491.668 96.3551H467.325C466.828 92.1648 465.407 88.88 463.064 86.5007C460.755 84.1214 457.737 82.9318 454.008 82.9318C450.99 82.9318 448.344 83.7841 446.072 85.4886C443.799 87.1577 442.023 89.6435 440.745 92.946C439.502 96.2131 438.88 100.261 438.88 105.091C438.88 109.92 439.502 114.004 440.745 117.342C442.023 120.645 443.799 123.148 446.072 124.853C448.344 126.522 450.99 127.357 454.008 127.357C456.423 127.357 458.554 126.842 460.4 125.812C462.282 124.782 463.827 123.273 465.035 121.284C466.242 119.26 467.005 116.81 467.325 113.933H491.668C491.42 120.68 489.733 126.575 486.608 131.618C483.518 136.661 479.168 140.585 473.557 143.39C467.982 146.16 461.359 147.545 453.689 147.545Z" fill="#FB3640"/>
<path d="M8.25639 235V125.909H34.6236V213.587H80.0071V235H8.25639ZM116.721 236.385C111.501 236.385 106.867 235.515 102.819 233.775C98.8059 231.999 95.6277 229.336 93.2839 225.785C90.9757 222.198 89.8216 217.706 89.8216 212.308C89.8216 207.763 90.6206 203.928 92.2186 200.803C93.8166 197.678 96.0183 195.138 98.8237 193.185C101.629 191.232 104.861 189.759 108.518 188.764C112.176 187.734 116.082 187.042 120.237 186.687C124.889 186.261 128.635 185.817 131.476 185.355C134.317 184.858 136.377 184.165 137.655 183.278C138.969 182.354 139.626 181.058 139.626 179.389V179.123C139.626 176.388 138.685 174.276 136.803 172.784C134.921 171.293 132.382 170.547 129.186 170.547C125.741 170.547 122.971 171.293 120.876 172.784C118.781 174.276 117.449 176.335 116.881 178.963L92.8578 178.111C93.568 173.139 95.3968 168.7 98.3443 164.794C101.327 160.852 105.411 157.763 110.596 155.526C115.816 153.253 122.084 152.116 129.399 152.116C134.619 152.116 139.431 152.738 143.834 153.981C148.238 155.188 152.073 156.964 155.34 159.308C158.607 161.616 161.128 164.457 162.904 167.83C164.715 171.204 165.621 175.057 165.621 179.389V235H141.118V223.601H140.479C139.023 226.371 137.158 228.714 134.885 230.632C132.648 232.55 130.003 233.988 126.949 234.947C123.93 235.906 120.521 236.385 116.721 236.385ZM124.765 219.339C127.57 219.339 130.091 218.771 132.329 217.635C134.601 216.499 136.412 214.936 137.762 212.947C139.111 210.923 139.786 208.58 139.786 205.916V198.139C139.04 198.53 138.135 198.885 137.069 199.205C136.04 199.524 134.903 199.826 133.66 200.11C132.417 200.394 131.139 200.643 129.825 200.856C128.511 201.069 127.251 201.264 126.043 201.442C123.593 201.832 121.498 202.436 119.758 203.253C118.053 204.07 116.739 205.135 115.816 206.449C114.928 207.727 114.484 209.254 114.484 211.03C114.484 213.729 115.443 215.788 117.361 217.209C119.314 218.629 121.782 219.339 124.765 219.339ZM207.595 188.338V235H181.547V153.182H206.317V168.203H207.222C209.033 163.196 212.123 159.272 216.491 156.431C220.858 153.555 226.061 152.116 232.098 152.116C237.851 152.116 242.84 153.413 247.066 156.005C251.327 158.562 254.63 162.148 256.974 166.765C259.353 171.346 260.525 176.708 260.489 182.852V235H234.442V187.965C234.477 183.42 233.323 179.869 230.979 177.312C228.671 174.755 225.457 173.477 221.338 173.477C218.604 173.477 216.189 174.08 214.094 175.288C212.034 176.46 210.436 178.146 209.3 180.348C208.199 182.55 207.631 185.213 207.595 188.338ZM314.755 267.386C306.978 267.386 300.32 266.303 294.78 264.137C289.24 261.971 284.89 259.006 281.729 255.241C278.569 251.477 276.669 247.216 276.03 242.457L300.692 241.072C301.154 242.741 302.006 244.197 303.249 245.44C304.528 246.683 306.179 247.642 308.203 248.317C310.263 248.991 312.678 249.329 315.447 249.329C319.815 249.329 323.42 248.263 326.261 246.133C329.137 244.038 330.575 240.362 330.575 235.107V220.724H329.67C328.64 223.246 327.077 225.501 324.982 227.489C322.887 229.478 320.277 231.04 317.152 232.177C314.063 233.313 310.511 233.881 306.499 233.881C300.533 233.881 295.064 232.496 290.092 229.727C285.156 226.921 281.197 222.589 278.214 216.729C275.266 210.835 273.793 203.253 273.793 193.984C273.793 184.432 275.32 176.566 278.374 170.387C281.428 164.173 285.423 159.574 290.359 156.591C295.33 153.608 300.675 152.116 306.392 152.116C310.689 152.116 314.364 152.862 317.418 154.354C320.508 155.81 323.047 157.692 325.036 160C327.024 162.308 328.533 164.705 329.563 167.191H330.309V153.182H356.25V235.32C356.25 242.244 354.51 248.086 351.03 252.844C347.55 257.603 342.685 261.207 336.435 263.658C330.185 266.143 322.958 267.386 314.755 267.386ZM315.554 214.918C318.714 214.918 321.413 214.084 323.651 212.415C325.888 210.746 327.61 208.349 328.817 205.224C330.025 202.099 330.629 198.352 330.629 193.984C330.629 189.545 330.025 185.728 328.817 182.532C327.646 179.3 325.923 176.815 323.651 175.075C321.413 173.335 318.714 172.464 315.554 172.464C312.322 172.464 309.588 173.352 307.351 175.128C305.114 176.903 303.409 179.407 302.237 182.638C301.101 185.835 300.533 189.616 300.533 193.984C300.533 198.352 301.119 202.099 302.29 205.224C303.462 208.349 305.149 210.746 307.351 212.415C309.588 214.084 312.322 214.918 315.554 214.918ZM398.904 125.909V235H372.856V125.909H398.904ZM453.675 236.545C445.082 236.545 437.695 234.787 431.516 231.271C425.373 227.72 420.632 222.784 417.294 216.463C413.991 210.107 412.34 202.738 412.34 194.357C412.34 185.941 413.991 178.572 417.294 172.251C420.632 165.895 425.373 160.959 431.516 157.443C437.695 153.892 445.082 152.116 453.675 152.116C462.269 152.116 469.638 153.892 475.781 157.443C481.96 160.959 486.701 165.895 490.004 172.251C493.342 178.572 495.011 185.941 495.011 194.357C495.011 202.738 493.342 210.107 490.004 216.463C486.701 222.784 481.96 227.72 475.781 231.271C469.638 234.787 462.269 236.545 453.675 236.545ZM453.835 216.889C456.96 216.889 459.606 215.93 461.772 214.013C463.938 212.095 465.589 209.432 466.726 206.023C467.898 202.614 468.484 198.672 468.484 194.197C468.484 189.652 467.898 185.675 466.726 182.266C465.589 178.857 463.938 176.193 461.772 174.276C459.606 172.358 456.96 171.399 453.835 171.399C450.604 171.399 447.869 172.358 445.632 174.276C443.43 176.193 441.744 178.857 440.572 182.266C439.435 185.675 438.867 189.652 438.867 194.197C438.867 198.672 439.435 202.614 440.572 206.023C441.744 209.432 443.43 212.095 445.632 214.013C447.869 215.93 450.604 216.889 453.835 216.889ZM508.354 235V153.182H534.402V235H508.354ZM521.404 143.647C517.747 143.647 514.604 142.44 511.976 140.025C509.348 137.575 508.034 134.627 508.034 131.183C508.034 127.773 509.348 124.862 511.976 122.447C514.604 119.996 517.747 118.771 521.404 118.771C525.098 118.771 528.24 119.996 530.833 122.447C533.461 124.862 534.775 127.773 534.775 131.183C534.775 134.627 533.461 137.575 530.833 140.025C528.24 142.44 525.098 143.647 521.404 143.647ZM622.412 178.164L598.495 178.803C598.247 177.099 597.572 175.589 596.471 174.276C595.37 172.926 593.932 171.879 592.156 171.133C590.416 170.352 588.392 169.961 586.084 169.961C583.066 169.961 580.491 170.565 578.36 171.772C576.265 172.979 575.235 174.613 575.271 176.673C575.235 178.271 575.874 179.656 577.188 180.827C578.538 181.999 580.935 182.94 584.379 183.651L600.146 186.634C608.314 188.196 614.387 190.788 618.364 194.411C622.377 198.033 624.401 202.827 624.436 208.793C624.401 214.403 622.732 219.286 619.429 223.441C616.162 227.596 611.688 230.827 606.006 233.136C600.324 235.408 593.825 236.545 586.51 236.545C574.827 236.545 565.612 234.148 558.865 229.354C552.153 224.524 548.318 218.061 547.359 209.964L573.087 209.325C573.655 212.308 575.129 214.581 577.508 216.143C579.887 217.706 582.923 218.487 586.617 218.487C589.955 218.487 592.671 217.866 594.767 216.623C596.862 215.38 597.927 213.729 597.963 211.669C597.927 209.822 597.11 208.349 595.512 207.248C593.914 206.112 591.411 205.224 588.002 204.585L573.726 201.868C565.523 200.376 559.415 197.624 555.402 193.612C551.389 189.563 549.401 184.414 549.436 178.164C549.401 172.695 550.857 168.026 553.804 164.155C556.752 160.249 560.942 157.266 566.375 155.206C571.808 153.146 578.218 152.116 585.605 152.116C596.684 152.116 605.42 154.442 611.812 159.094C618.204 163.711 621.737 170.067 622.412 178.164Z" fill="#FB3640"/>
<path d="M379.011 285.222C378.176 285.222 377.435 285.082 376.787 284.804C376.145 284.52 375.636 284.094 375.261 283.526C374.892 282.952 374.707 282.233 374.707 281.369C374.707 280.642 374.835 280.028 375.091 279.528C375.347 279.028 375.699 278.622 376.148 278.31C376.597 277.997 377.114 277.761 377.699 277.602C378.284 277.437 378.909 277.327 379.574 277.27C380.318 277.202 380.918 277.131 381.372 277.057C381.827 276.977 382.156 276.866 382.361 276.724C382.571 276.577 382.676 276.369 382.676 276.102V276.06C382.676 275.622 382.526 275.284 382.224 275.045C381.923 274.807 381.517 274.688 381.006 274.688C380.455 274.688 380.011 274.807 379.676 275.045C379.341 275.284 379.128 275.614 379.037 276.034L375.193 275.898C375.307 275.102 375.599 274.392 376.071 273.767C376.548 273.136 377.202 272.642 378.031 272.284C378.866 271.92 379.869 271.739 381.04 271.739C381.875 271.739 382.645 271.838 383.349 272.037C384.054 272.23 384.668 272.514 385.19 272.889C385.713 273.259 386.116 273.713 386.401 274.253C386.69 274.793 386.835 275.409 386.835 276.102V285H382.915V283.176H382.812C382.58 283.619 382.281 283.994 381.918 284.301C381.56 284.608 381.136 284.838 380.648 284.991C380.165 285.145 379.619 285.222 379.011 285.222ZM380.298 282.494C380.747 282.494 381.151 282.403 381.509 282.222C381.872 282.04 382.162 281.79 382.378 281.472C382.594 281.148 382.702 280.773 382.702 280.347V279.102C382.582 279.165 382.438 279.222 382.267 279.273C382.102 279.324 381.92 279.372 381.722 279.418C381.523 279.463 381.318 279.503 381.108 279.537C380.898 279.571 380.696 279.602 380.503 279.631C380.111 279.693 379.776 279.79 379.497 279.92C379.224 280.051 379.014 280.222 378.866 280.432C378.724 280.636 378.653 280.881 378.653 281.165C378.653 281.597 378.807 281.926 379.114 282.153C379.426 282.381 379.821 282.494 380.298 282.494ZM393.551 277.534V285H389.384V271.909H393.347V274.312H393.491C393.781 273.511 394.276 272.884 394.974 272.429C395.673 271.969 396.506 271.739 397.472 271.739C398.392 271.739 399.19 271.946 399.866 272.361C400.548 272.77 401.077 273.344 401.452 274.082C401.832 274.815 402.02 275.673 402.014 276.656V285H397.847V277.474C397.852 276.747 397.668 276.179 397.293 275.77C396.923 275.361 396.409 275.156 395.75 275.156C395.312 275.156 394.926 275.253 394.591 275.446C394.261 275.634 394.006 275.903 393.824 276.256C393.648 276.608 393.557 277.034 393.551 277.534ZM418.197 279.349V271.909H422.356V285H418.384V282.562H418.248C417.958 283.364 417.464 284 416.765 284.472C416.072 284.937 415.234 285.17 414.251 285.17C413.359 285.17 412.575 284.966 411.898 284.557C411.222 284.148 410.697 283.577 410.322 282.844C409.947 282.105 409.756 281.241 409.751 280.253V271.909H413.918V279.435C413.924 280.145 414.112 280.705 414.481 281.114C414.85 281.523 415.353 281.727 415.989 281.727C416.404 281.727 416.776 281.636 417.106 281.455C417.441 281.267 417.705 280.997 417.898 280.645C418.097 280.287 418.197 279.855 418.197 279.349ZM429.176 277.534V285H425.009V271.909H428.972V274.312H429.116C429.406 273.511 429.901 272.884 430.599 272.429C431.298 271.969 432.131 271.739 433.097 271.739C434.017 271.739 434.815 271.946 435.491 272.361C436.173 272.77 436.702 273.344 437.077 274.082C437.457 274.815 437.645 275.673 437.639 276.656V285H433.472V277.474C433.477 276.747 433.293 276.179 432.918 275.77C432.548 275.361 432.034 275.156 431.375 275.156C430.938 275.156 430.551 275.253 430.216 275.446C429.886 275.634 429.631 275.903 429.449 276.256C429.273 276.608 429.182 277.034 429.176 277.534ZM448.665 279.349V271.909H452.825V285H448.853V282.562H448.717C448.427 283.364 447.933 284 447.234 284.472C446.54 284.937 445.702 285.17 444.719 285.17C443.827 285.17 443.043 284.966 442.367 284.557C441.691 284.148 441.165 283.577 440.79 282.844C440.415 282.105 440.225 281.241 440.219 280.253V271.909H444.387V279.435C444.393 280.145 444.58 280.705 444.95 281.114C445.319 281.523 445.822 281.727 446.458 281.727C446.873 281.727 447.245 281.636 447.575 281.455C447.91 281.267 448.174 280.997 448.367 280.645C448.566 280.287 448.665 279.855 448.665 279.349ZM466.906 275.906L463.08 276.009C463.04 275.736 462.932 275.494 462.756 275.284C462.58 275.068 462.349 274.901 462.065 274.781C461.787 274.656 461.463 274.594 461.094 274.594C460.611 274.594 460.199 274.69 459.858 274.884C459.523 275.077 459.358 275.338 459.364 275.668C459.358 275.923 459.46 276.145 459.67 276.332C459.886 276.52 460.27 276.67 460.821 276.784L463.344 277.261C464.651 277.511 465.622 277.926 466.259 278.506C466.901 279.085 467.224 279.852 467.23 280.807C467.224 281.705 466.957 282.486 466.429 283.151C465.906 283.815 465.19 284.332 464.281 284.702C463.372 285.065 462.332 285.247 461.162 285.247C459.293 285.247 457.818 284.864 456.739 284.097C455.665 283.324 455.051 282.29 454.898 280.994L459.014 280.892C459.105 281.369 459.341 281.733 459.722 281.983C460.102 282.233 460.588 282.358 461.179 282.358C461.713 282.358 462.148 282.259 462.483 282.06C462.818 281.861 462.989 281.597 462.994 281.267C462.989 280.972 462.858 280.736 462.602 280.56C462.347 280.378 461.946 280.236 461.401 280.134L459.116 279.699C457.804 279.46 456.827 279.02 456.185 278.378C455.543 277.73 455.224 276.906 455.23 275.906C455.224 275.031 455.457 274.284 455.929 273.665C456.401 273.04 457.071 272.562 457.94 272.233C458.81 271.903 459.835 271.739 461.017 271.739C462.79 271.739 464.188 272.111 465.21 272.855C466.233 273.594 466.798 274.611 466.906 275.906ZM477.728 279.349V271.909H481.887V285H477.915V282.562H477.779C477.489 283.364 476.995 284 476.296 284.472C475.603 284.937 474.765 285.17 473.782 285.17C472.89 285.17 472.106 284.966 471.43 284.557C470.754 284.148 470.228 283.577 469.853 282.844C469.478 282.105 469.288 281.241 469.282 280.253V271.909H473.45V279.435C473.455 280.145 473.643 280.705 474.012 281.114C474.381 281.523 474.884 281.727 475.521 281.727C475.935 281.727 476.308 281.636 476.637 281.455C476.972 281.267 477.237 280.997 477.43 280.645C477.629 280.287 477.728 279.855 477.728 279.349ZM488.23 285.222C487.395 285.222 486.653 285.082 486.006 284.804C485.364 284.52 484.855 284.094 484.48 283.526C484.111 282.952 483.926 282.233 483.926 281.369C483.926 280.642 484.054 280.028 484.31 279.528C484.565 279.028 484.918 278.622 485.366 278.31C485.815 277.997 486.332 277.761 486.918 277.602C487.503 277.437 488.128 277.327 488.793 277.27C489.537 277.202 490.136 277.131 490.591 277.057C491.045 276.977 491.375 276.866 491.58 276.724C491.79 276.577 491.895 276.369 491.895 276.102V276.06C491.895 275.622 491.744 275.284 491.443 275.045C491.142 274.807 490.736 274.688 490.224 274.688C489.673 274.688 489.23 274.807 488.895 275.045C488.56 275.284 488.347 275.614 488.256 276.034L484.412 275.898C484.526 275.102 484.818 274.392 485.29 273.767C485.767 273.136 486.42 272.642 487.25 272.284C488.085 271.92 489.088 271.739 490.259 271.739C491.094 271.739 491.864 271.838 492.568 272.037C493.273 272.23 493.886 272.514 494.409 272.889C494.932 273.259 495.335 273.713 495.619 274.253C495.909 274.793 496.054 275.409 496.054 276.102V285H492.134V283.176H492.031C491.798 283.619 491.5 283.994 491.136 284.301C490.778 284.608 490.355 284.838 489.866 284.991C489.384 285.145 488.838 285.222 488.23 285.222ZM489.517 282.494C489.966 282.494 490.369 282.403 490.727 282.222C491.091 282.04 491.381 281.79 491.597 281.472C491.813 281.148 491.92 280.773 491.92 280.347V279.102C491.801 279.165 491.656 279.222 491.486 279.273C491.321 279.324 491.139 279.372 490.94 279.418C490.741 279.463 490.537 279.503 490.327 279.537C490.116 279.571 489.915 279.602 489.722 279.631C489.33 279.693 488.994 279.79 488.716 279.92C488.443 280.051 488.233 280.222 488.085 280.432C487.943 280.636 487.872 280.881 487.872 281.165C487.872 281.597 488.026 281.926 488.332 282.153C488.645 282.381 489.04 282.494 489.517 282.494ZM502.77 267.545V285H498.602V267.545H502.77ZM513.025 285L509.616 271.909H513.8L515.565 280.295H515.675L517.567 271.909H521.65L523.593 280.236H523.704L525.417 271.909H529.602L526.184 285H521.727L519.681 277.372H519.536L517.491 285H513.025ZM537.112 285.247C535.743 285.247 534.561 284.977 533.567 284.438C532.578 283.892 531.817 283.116 531.283 282.111C530.754 281.099 530.49 279.898 530.49 278.506C530.49 277.153 530.757 275.972 531.291 274.96C531.825 273.943 532.578 273.153 533.55 272.591C534.521 272.023 535.666 271.739 536.984 271.739C537.916 271.739 538.768 271.884 539.541 272.173C540.314 272.463 540.982 272.892 541.544 273.46C542.107 274.028 542.544 274.73 542.857 275.565C543.169 276.395 543.325 277.347 543.325 278.42V279.46H531.947V277.04H539.447C539.442 276.597 539.337 276.202 539.132 275.855C538.928 275.509 538.646 275.239 538.288 275.045C537.936 274.847 537.53 274.747 537.07 274.747C536.604 274.747 536.186 274.852 535.817 275.062C535.447 275.267 535.155 275.548 534.939 275.906C534.723 276.259 534.609 276.659 534.598 277.108V279.571C534.598 280.105 534.703 280.574 534.913 280.977C535.124 281.375 535.422 281.685 535.808 281.906C536.195 282.128 536.655 282.239 537.189 282.239C537.558 282.239 537.893 282.187 538.195 282.085C538.496 281.983 538.754 281.832 538.97 281.634C539.186 281.435 539.348 281.19 539.456 280.901L543.283 281.011C543.124 281.869 542.774 282.616 542.234 283.253C541.7 283.884 540.999 284.375 540.129 284.727C539.26 285.074 538.254 285.247 537.112 285.247ZM545.454 285V267.545H549.621V274.151H549.707C549.877 273.753 550.119 273.369 550.431 273C550.749 272.631 551.153 272.33 551.641 272.097C552.136 271.858 552.727 271.739 553.414 271.739C554.323 271.739 555.173 271.977 555.962 272.455C556.758 272.932 557.4 273.668 557.888 274.662C558.377 275.656 558.621 276.923 558.621 278.463C558.621 279.946 558.386 281.188 557.914 282.188C557.448 283.188 556.817 283.938 556.022 284.438C555.232 284.938 554.354 285.188 553.388 285.188C552.729 285.188 552.158 285.08 551.675 284.864C551.192 284.648 550.786 284.364 550.457 284.011C550.133 283.659 549.883 283.281 549.707 282.878H549.579V285H545.454ZM549.536 278.455C549.536 279.159 549.63 279.773 549.817 280.295C550.011 280.818 550.286 281.224 550.644 281.514C551.008 281.798 551.442 281.94 551.948 281.94C552.46 281.94 552.894 281.798 553.252 281.514C553.61 281.224 553.88 280.818 554.062 280.295C554.249 279.773 554.343 279.159 554.343 278.455C554.343 277.75 554.249 277.139 554.062 276.622C553.88 276.105 553.61 275.705 553.252 275.42C552.9 275.136 552.465 274.994 551.948 274.994C551.437 274.994 551.002 275.134 550.644 275.412C550.286 275.69 550.011 276.088 549.817 276.605C549.63 277.122 549.536 277.739 549.536 278.455ZM570.743 285.188C569.777 285.188 568.899 284.938 568.109 284.438C567.32 283.938 566.689 283.188 566.217 282.188C565.746 281.188 565.51 279.946 565.51 278.463C565.51 276.923 565.754 275.656 566.243 274.662C566.732 273.668 567.371 272.932 568.161 272.455C568.956 271.977 569.811 271.739 570.726 271.739C571.413 271.739 572.001 271.858 572.49 272.097C572.979 272.33 573.382 272.631 573.7 273C574.018 273.369 574.26 273.753 574.425 274.151H574.51V267.545H578.678V285H574.553V282.878H574.425C574.249 283.281 573.999 283.659 573.675 284.011C573.351 284.364 572.945 284.648 572.456 284.864C571.973 285.08 571.402 285.188 570.743 285.188ZM572.192 281.94C572.697 281.94 573.129 281.798 573.487 281.514C573.845 281.224 574.121 280.818 574.314 280.295C574.507 279.773 574.604 279.159 574.604 278.455C574.604 277.739 574.507 277.122 574.314 276.605C574.126 276.088 573.851 275.69 573.487 275.412C573.129 275.134 572.697 274.994 572.192 274.994C571.675 274.994 571.237 275.136 570.879 275.42C570.521 275.705 570.249 276.105 570.061 276.622C569.879 277.139 569.788 277.75 569.788 278.455C569.788 279.159 569.882 279.773 570.07 280.295C570.257 280.818 570.527 281.224 570.879 281.514C571.237 281.798 571.675 281.94 572.192 281.94ZM587.433 285.247C586.063 285.247 584.881 284.977 583.887 284.438C582.898 283.892 582.137 283.116 581.603 282.111C581.075 281.099 580.81 279.898 580.81 278.506C580.81 277.153 581.077 275.972 581.612 274.96C582.146 273.943 582.898 273.153 583.87 272.591C584.842 272.023 585.987 271.739 587.305 271.739C588.237 271.739 589.089 271.884 589.862 272.173C590.634 272.463 591.302 272.892 591.864 273.46C592.427 274.028 592.864 274.73 593.177 275.565C593.489 276.395 593.646 277.347 593.646 278.42V279.46H582.268V277.04H589.768C589.762 276.597 589.657 276.202 589.452 275.855C589.248 275.509 588.967 275.239 588.609 275.045C588.256 274.847 587.85 274.747 587.39 274.747C586.924 274.747 586.506 274.852 586.137 275.062C585.768 275.267 585.475 275.548 585.259 275.906C585.043 276.259 584.93 276.659 584.918 277.108V279.571C584.918 280.105 585.023 280.574 585.234 280.977C585.444 281.375 585.742 281.685 586.129 281.906C586.515 282.128 586.975 282.239 587.509 282.239C587.879 282.239 588.214 282.187 588.515 282.085C588.816 281.983 589.075 281.832 589.29 281.634C589.506 281.435 589.668 281.19 589.776 280.901L593.603 281.011C593.444 281.869 593.094 282.616 592.555 283.253C592.021 283.884 591.319 284.375 590.45 284.727C589.58 285.074 588.575 285.247 587.433 285.247ZM608.121 271.909L603.63 285H598.857L594.374 271.909H598.763L601.175 280.926H601.312L603.732 271.909H608.121ZM615.417 285.247C614.048 285.247 612.866 284.977 611.871 284.438C610.883 283.892 610.121 283.116 609.587 282.111C609.059 281.099 608.795 279.898 608.795 278.506C608.795 277.153 609.062 275.972 609.596 274.96C610.13 273.943 610.883 273.153 611.854 272.591C612.826 272.023 613.971 271.739 615.289 271.739C616.221 271.739 617.073 271.884 617.846 272.173C618.619 272.463 619.286 272.892 619.849 273.46C620.411 274.028 620.849 274.73 621.161 275.565C621.474 276.395 621.63 277.347 621.63 278.42V279.46H610.252V277.04H617.752C617.746 276.597 617.641 276.202 617.437 275.855C617.232 275.509 616.951 275.239 616.593 275.045C616.241 274.847 615.835 274.747 615.374 274.747C614.908 274.747 614.491 274.852 614.121 275.062C613.752 275.267 613.46 275.548 613.244 275.906C613.028 276.259 612.914 276.659 612.903 277.108V279.571C612.903 280.105 613.008 280.574 613.218 280.977C613.428 281.375 613.727 281.685 614.113 281.906C614.499 282.128 614.96 282.239 615.494 282.239C615.863 282.239 616.198 282.187 616.499 282.085C616.8 281.983 617.059 281.832 617.275 281.634C617.491 281.435 617.653 281.19 617.761 280.901L621.587 281.011C621.428 281.869 621.079 282.616 620.539 283.253C620.005 283.884 619.303 284.375 618.434 284.727C617.565 285.074 616.559 285.247 615.417 285.247ZM627.926 267.545V285H623.759V267.545H627.926ZM636.69 285.247C635.315 285.247 634.133 284.966 633.144 284.403C632.161 283.835 631.403 283.045 630.869 282.034C630.34 281.017 630.076 279.838 630.076 278.497C630.076 277.151 630.34 275.972 630.869 274.96C631.403 273.943 632.161 273.153 633.144 272.591C634.133 272.023 635.315 271.739 636.69 271.739C638.065 271.739 639.244 272.023 640.227 272.591C641.215 273.153 641.974 273.943 642.502 274.96C643.036 275.972 643.303 277.151 643.303 278.497C643.303 279.838 643.036 281.017 642.502 282.034C641.974 283.045 641.215 283.835 640.227 284.403C639.244 284.966 638.065 285.247 636.69 285.247ZM636.715 282.102C637.215 282.102 637.638 281.949 637.985 281.642C638.332 281.335 638.596 280.909 638.778 280.364C638.965 279.818 639.059 279.187 639.059 278.472C639.059 277.744 638.965 277.108 638.778 276.562C638.596 276.017 638.332 275.591 637.985 275.284C637.638 274.977 637.215 274.824 636.715 274.824C636.198 274.824 635.761 274.977 635.403 275.284C635.05 275.591 634.781 276.017 634.593 276.562C634.411 277.108 634.32 277.744 634.32 278.472C634.32 279.187 634.411 279.818 634.593 280.364C634.781 280.909 635.05 281.335 635.403 281.642C635.761 281.949 636.198 282.102 636.715 282.102ZM645.438 289.909V271.909H649.563V274.151H649.691C649.862 273.753 650.103 273.369 650.415 273C650.734 272.631 651.137 272.33 651.626 272.097C652.12 271.858 652.711 271.739 653.398 271.739C654.308 271.739 655.157 271.977 655.947 272.455C656.742 272.932 657.384 273.668 657.873 274.662C658.362 275.656 658.606 276.923 658.606 278.463C658.606 279.946 658.37 281.188 657.898 282.188C657.433 283.188 656.802 283.938 656.006 284.438C655.217 284.938 654.339 285.188 653.373 285.188C652.714 285.188 652.143 285.08 651.66 284.864C651.177 284.648 650.771 284.364 650.441 284.011C650.117 283.659 649.867 283.281 649.691 282.878H649.606V289.909H645.438ZM649.521 278.455C649.521 279.159 649.614 279.773 649.802 280.295C649.995 280.818 650.271 281.224 650.629 281.514C650.992 281.798 651.427 281.94 651.933 281.94C652.444 281.94 652.879 281.798 653.237 281.514C653.594 281.224 653.864 280.818 654.046 280.295C654.234 279.773 654.327 279.159 654.327 278.455C654.327 277.75 654.234 277.139 654.046 276.622C653.864 276.105 653.594 275.705 653.237 275.42C652.884 275.136 652.45 274.994 651.933 274.994C651.421 274.994 650.987 275.134 650.629 275.412C650.271 275.69 649.995 276.088 649.802 276.605C649.614 277.122 649.521 277.739 649.521 278.455ZM660.79 289.909V271.909H664.915V274.151H665.043C665.213 273.753 665.455 273.369 665.767 273C666.085 272.631 666.489 272.33 666.977 272.097C667.472 271.858 668.062 271.739 668.75 271.739C669.659 271.739 670.509 271.977 671.298 272.455C672.094 272.932 672.736 273.668 673.224 274.662C673.713 275.656 673.957 276.923 673.957 278.463C673.957 279.946 673.722 281.188 673.25 282.188C672.784 283.188 672.153 283.938 671.358 284.438C670.568 284.938 669.69 285.188 668.724 285.188C668.065 285.188 667.494 285.08 667.011 284.864C666.528 284.648 666.122 284.364 665.793 284.011C665.469 283.659 665.219 283.281 665.043 282.878H664.957V289.909H660.79ZM664.872 278.455C664.872 279.159 664.966 279.773 665.153 280.295C665.347 280.818 665.622 281.224 665.98 281.514C666.344 281.798 666.778 281.94 667.284 281.94C667.795 281.94 668.23 281.798 668.588 281.514C668.946 281.224 669.216 280.818 669.398 280.295C669.585 279.773 669.679 279.159 669.679 278.455C669.679 277.75 669.585 277.139 669.398 276.622C669.216 276.105 668.946 275.705 668.588 275.42C668.236 275.136 667.801 274.994 667.284 274.994C666.773 274.994 666.338 275.134 665.98 275.412C665.622 275.69 665.347 276.088 665.153 276.605C664.966 277.122 664.872 277.739 664.872 278.455ZM682.261 285.247C680.891 285.247 679.71 284.977 678.715 284.438C677.727 283.892 676.965 283.116 676.431 282.111C675.903 281.099 675.638 279.898 675.638 278.506C675.638 277.153 675.906 275.972 676.44 274.96C676.974 273.943 677.727 273.153 678.698 272.591C679.67 272.023 680.815 271.739 682.133 271.739C683.065 271.739 683.917 271.884 684.69 272.173C685.462 272.463 686.13 272.892 686.692 273.46C687.255 274.028 687.692 274.73 688.005 275.565C688.317 276.395 688.474 277.347 688.474 278.42V279.46H677.096V277.04H684.596C684.59 276.597 684.485 276.202 684.281 275.855C684.076 275.509 683.795 275.239 683.437 275.045C683.085 274.847 682.678 274.747 682.218 274.747C681.752 274.747 681.335 274.852 680.965 275.062C680.596 275.267 680.303 275.548 680.087 275.906C679.871 276.259 679.758 276.659 679.746 277.108V279.571C679.746 280.105 679.852 280.574 680.062 280.977C680.272 281.375 680.57 281.685 680.957 281.906C681.343 282.128 681.803 282.239 682.337 282.239C682.707 282.239 683.042 282.187 683.343 282.085C683.644 281.983 683.903 281.832 684.119 281.634C684.335 281.435 684.496 281.19 684.604 280.901L688.431 281.011C688.272 281.869 687.923 282.616 687.383 283.253C686.849 283.884 686.147 284.375 685.278 284.727C684.408 285.074 683.403 285.247 682.261 285.247ZM690.602 285V271.909H694.651V274.295H694.787C695.026 273.432 695.415 272.79 695.955 272.369C696.494 271.943 697.122 271.73 697.838 271.73C698.031 271.73 698.23 271.744 698.435 271.773C698.639 271.795 698.83 271.832 699.006 271.884V275.506C698.807 275.437 698.545 275.384 698.222 275.344C697.903 275.304 697.619 275.284 697.369 275.284C696.875 275.284 696.429 275.395 696.031 275.616C695.639 275.832 695.33 276.136 695.102 276.528C694.881 276.915 694.77 277.369 694.77 277.892V285H690.602Z" fill="#EAEAEB"/>
</svg>
