<svg width="700" height="287" viewBox="0 0 700 287" fill="none" xmlns="http://www.w3.org/2000/svg">
<path d="M217.256 146V36.9091H293.322V58.3224H243.624V80.6946H289.433V102.161H243.624V124.587H293.322V146H217.256ZM309.835 146V64.1818H335.136V79.0966H335.989C337.48 73.6989 339.913 69.6861 343.286 67.0582C346.66 64.3949 350.584 63.0632 355.058 63.0632C356.266 63.0632 357.509 63.152 358.787 63.3295C360.065 63.4716 361.255 63.7024 362.356 64.022V86.6605C361.113 86.2344 359.479 85.897 357.455 85.6484C355.467 85.3999 353.691 85.2756 352.129 85.2756C349.039 85.2756 346.251 85.968 343.766 87.353C341.315 88.7024 339.38 90.6023 337.96 93.0526C336.575 95.4673 335.882 98.3082 335.882 101.575V146H309.835ZM372.969 146V64.1818H399.017V146H372.969ZM386.02 54.647C382.362 54.647 379.219 53.4396 376.591 51.0249C373.964 48.5746 372.65 45.6271 372.65 42.1825C372.65 38.7734 373.964 35.8615 376.591 33.4467C379.219 30.9964 382.362 29.7713 386.02 29.7713C389.713 29.7713 392.856 30.9964 395.448 33.4467C398.076 35.8615 399.39 38.7734 399.39 42.1825C399.39 45.6271 398.076 48.5746 395.448 51.0249C392.856 53.4396 389.713 54.647 386.02 54.647ZM453.789 147.545C445.159 147.545 437.755 145.769 431.576 142.218C425.433 138.667 420.71 133.731 417.407 127.41C414.105 121.053 412.453 113.702 412.453 105.357C412.453 96.9766 414.105 89.6257 417.407 83.3047C420.745 76.9482 425.486 71.9943 431.63 68.4432C437.809 64.892 445.177 63.1165 453.735 63.1165C461.299 63.1165 467.887 64.4837 473.498 67.218C479.144 69.9524 483.547 73.8232 486.708 78.8303C489.904 83.8018 491.591 89.6435 491.768 96.3551H467.425C466.928 92.1648 465.507 88.88 463.164 86.5007C460.855 84.1214 457.837 82.9318 454.108 82.9318C451.09 82.9318 448.444 83.7841 446.172 85.4886C443.899 87.1577 442.123 89.6435 440.845 92.946C439.602 96.2131 438.98 100.261 438.98 105.091C438.98 109.92 439.602 114.004 440.845 117.342C442.123 120.645 443.899 123.148 446.172 124.853C448.444 126.522 451.09 127.357 454.108 127.357C456.523 127.357 458.654 126.842 460.5 125.812C462.382 124.782 463.927 123.273 465.135 121.284C466.342 119.26 467.105 116.81 467.425 113.933H491.768C491.52 120.68 489.833 126.575 486.708 131.618C483.618 136.661 479.268 140.585 473.657 143.39C468.082 146.16 461.459 147.545 453.789 147.545Z" fill="#FB3640"/>
<path d="M8.25639 245V135.909H34.6236V223.587H80.0071V245H8.25639ZM116.721 246.385C111.501 246.385 106.867 245.515 102.819 243.775C98.8059 241.999 95.6277 239.336 93.2839 235.785C90.9757 232.198 89.8216 227.706 89.8216 222.308C89.8216 217.763 90.6206 213.928 92.2186 210.803C93.8166 207.678 96.0183 205.138 98.8237 203.185C101.629 201.232 104.861 199.759 108.518 198.764C112.176 197.734 116.082 197.042 120.237 196.687C124.889 196.261 128.635 195.817 131.476 195.355C134.317 194.858 136.377 194.165 137.655 193.278C138.969 192.354 139.626 191.058 139.626 189.389V189.123C139.626 186.388 138.685 184.276 136.803 182.784C134.921 181.293 132.382 180.547 129.186 180.547C125.741 180.547 122.971 181.293 120.876 182.784C118.781 184.276 117.449 186.335 116.881 188.963L92.8578 188.111C93.568 183.139 95.3968 178.7 98.3443 174.794C101.327 170.852 105.411 167.763 110.596 165.526C115.816 163.253 122.084 162.116 129.399 162.116C134.619 162.116 139.431 162.738 143.834 163.981C148.238 165.188 152.073 166.964 155.34 169.308C158.607 171.616 161.128 174.457 162.904 177.83C164.715 181.204 165.621 185.057 165.621 189.389V245H141.118V233.601H140.479C139.023 236.371 137.158 238.714 134.885 240.632C132.648 242.55 130.003 243.988 126.949 244.947C123.93 245.906 120.521 246.385 116.721 246.385ZM124.765 229.339C127.57 229.339 130.091 228.771 132.329 227.635C134.601 226.499 136.412 224.936 137.762 222.947C139.111 220.923 139.786 218.58 139.786 215.916V208.139C139.04 208.53 138.135 208.885 137.069 209.205C136.04 209.524 134.903 209.826 133.66 210.11C132.417 210.394 131.139 210.643 129.825 210.856C128.511 211.069 127.251 211.264 126.043 211.442C123.593 211.832 121.498 212.436 119.758 213.253C118.053 214.07 116.739 215.135 115.816 216.449C114.928 217.727 114.484 219.254 114.484 221.03C114.484 223.729 115.443 225.788 117.361 227.209C119.314 228.629 121.782 229.339 124.765 229.339ZM207.595 198.338V245H181.547V163.182H206.317V178.203H207.222C209.033 173.196 212.123 169.272 216.491 166.431C220.858 163.555 226.061 162.116 232.098 162.116C237.851 162.116 242.84 163.413 247.066 166.005C251.327 168.562 254.63 172.148 256.974 176.765C259.353 181.346 260.525 186.708 260.489 192.852V245H234.442V197.965C234.477 193.42 233.323 189.869 230.979 187.312C228.671 184.755 225.457 183.477 221.338 183.477C218.604 183.477 216.189 184.08 214.094 185.288C212.034 186.46 210.436 188.146 209.3 190.348C208.199 192.55 207.631 195.213 207.595 198.338ZM314.755 277.386C306.978 277.386 300.32 276.303 294.78 274.137C289.24 271.971 284.89 269.006 281.729 265.241C278.569 261.477 276.669 257.216 276.03 252.457L300.692 251.072C301.154 252.741 302.006 254.197 303.249 255.44C304.528 256.683 306.179 257.642 308.203 258.317C310.263 258.991 312.678 259.329 315.447 259.329C319.815 259.329 323.42 258.263 326.261 256.133C329.137 254.038 330.575 250.362 330.575 245.107V230.724H329.67C328.64 233.246 327.077 235.501 324.982 237.489C322.887 239.478 320.277 241.04 317.152 242.177C314.063 243.313 310.511 243.881 306.499 243.881C300.533 243.881 295.064 242.496 290.092 239.727C285.156 236.921 281.197 232.589 278.214 226.729C275.266 220.835 273.793 213.253 273.793 203.984C273.793 194.432 275.32 186.566 278.374 180.387C281.428 174.173 285.423 169.574 290.359 166.591C295.33 163.608 300.675 162.116 306.392 162.116C310.689 162.116 314.364 162.862 317.418 164.354C320.508 165.81 323.047 167.692 325.036 170C327.024 172.308 328.533 174.705 329.563 177.191H330.309V163.182H356.25V245.32C356.25 252.244 354.51 258.086 351.03 262.844C347.55 267.603 342.685 271.207 336.435 273.658C330.185 276.143 322.958 277.386 314.755 277.386ZM315.554 224.918C318.714 224.918 321.413 224.084 323.651 222.415C325.888 220.746 327.61 218.349 328.817 215.224C330.025 212.099 330.629 208.352 330.629 203.984C330.629 199.545 330.025 195.728 328.817 192.532C327.646 189.3 325.923 186.815 323.651 185.075C321.413 183.335 318.714 182.464 315.554 182.464C312.322 182.464 309.588 183.352 307.351 185.128C305.114 186.903 303.409 189.407 302.237 192.638C301.101 195.835 300.533 199.616 300.533 203.984C300.533 208.352 301.119 212.099 302.29 215.224C303.462 218.349 305.149 220.746 307.351 222.415C309.588 224.084 312.322 224.918 315.554 224.918ZM398.904 135.909V245H372.856V135.909H398.904ZM453.675 246.545C445.082 246.545 437.695 244.787 431.516 241.271C425.373 237.72 420.632 232.784 417.294 226.463C413.991 220.107 412.34 212.738 412.34 204.357C412.34 195.941 413.991 188.572 417.294 182.251C420.632 175.895 425.373 170.959 431.516 167.443C437.695 163.892 445.082 162.116 453.675 162.116C462.269 162.116 469.638 163.892 475.781 167.443C481.96 170.959 486.701 175.895 490.004 182.251C493.342 188.572 495.011 195.941 495.011 204.357C495.011 212.738 493.342 220.107 490.004 226.463C486.701 232.784 481.96 237.72 475.781 241.271C469.638 244.787 462.269 246.545 453.675 246.545ZM453.835 226.889C456.96 226.889 459.606 225.93 461.772 224.013C463.938 222.095 465.589 219.432 466.726 216.023C467.898 212.614 468.484 208.672 468.484 204.197C468.484 199.652 467.898 195.675 466.726 192.266C465.589 188.857 463.938 186.193 461.772 184.276C459.606 182.358 456.96 181.399 453.835 181.399C450.604 181.399 447.869 182.358 445.632 184.276C443.43 186.193 441.744 188.857 440.572 192.266C439.435 195.675 438.867 199.652 438.867 204.197C438.867 208.672 439.435 212.614 440.572 216.023C441.744 219.432 443.43 222.095 445.632 224.013C447.869 225.93 450.604 226.889 453.835 226.889ZM508.354 245V163.182H534.402V245H508.354ZM521.404 153.647C517.747 153.647 514.604 152.44 511.976 150.025C509.348 147.575 508.034 144.627 508.034 141.183C508.034 137.773 509.348 134.862 511.976 132.447C514.604 129.996 517.747 128.771 521.404 128.771C525.098 128.771 528.24 129.996 530.833 132.447C533.461 134.862 534.775 137.773 534.775 141.183C534.775 144.627 533.461 147.575 530.833 150.025C528.24 152.44 525.098 153.647 521.404 153.647ZM622.412 188.164L598.495 188.803C598.247 187.099 597.572 185.589 596.471 184.276C595.37 182.926 593.932 181.879 592.156 181.133C590.416 180.352 588.392 179.961 586.084 179.961C583.066 179.961 580.491 180.565 578.36 181.772C576.265 182.979 575.235 184.613 575.271 186.673C575.235 188.271 575.874 189.656 577.188 190.827C578.538 191.999 580.935 192.94 584.379 193.651L600.146 196.634C608.314 198.196 614.387 200.788 618.364 204.411C622.377 208.033 624.401 212.827 624.436 218.793C624.401 224.403 622.732 229.286 619.429 233.441C616.162 237.596 611.688 240.827 606.006 243.136C600.324 245.408 593.825 246.545 586.51 246.545C574.827 246.545 565.612 244.148 558.865 239.354C552.153 234.524 548.318 228.061 547.359 219.964L573.087 219.325C573.655 222.308 575.129 224.581 577.508 226.143C579.887 227.706 582.923 228.487 586.617 228.487C589.955 228.487 592.671 227.866 594.767 226.623C596.862 225.38 597.927 223.729 597.963 221.669C597.927 219.822 597.11 218.349 595.512 217.248C593.914 216.112 591.411 215.224 588.002 214.585L573.726 211.868C565.523 210.376 559.415 207.624 555.402 203.612C551.389 199.563 549.401 194.414 549.436 188.164C549.401 182.695 550.857 178.026 553.804 174.155C556.752 170.249 560.942 167.266 566.375 165.206C571.808 163.146 578.218 162.116 585.605 162.116C596.684 162.116 605.42 164.442 611.812 169.094C618.204 173.711 621.737 180.067 622.412 188.164Z" fill="#FB3640"/>
<path d="M379.011 281.222C378.176 281.222 377.435 281.082 376.787 280.804C376.145 280.52 375.636 280.094 375.261 279.526C374.892 278.952 374.707 278.233 374.707 277.369C374.707 276.642 374.835 276.028 375.091 275.528C375.347 275.028 375.699 274.622 376.148 274.31C376.597 273.997 377.114 273.761 377.699 273.602C378.284 273.437 378.909 273.327 379.574 273.27C380.318 273.202 380.918 273.131 381.372 273.057C381.827 272.977 382.156 272.866 382.361 272.724C382.571 272.577 382.676 272.369 382.676 272.102V272.06C382.676 271.622 382.526 271.284 382.224 271.045C381.923 270.807 381.517 270.688 381.006 270.688C380.455 270.688 380.011 270.807 379.676 271.045C379.341 271.284 379.128 271.614 379.037 272.034L375.193 271.898C375.307 271.102 375.599 270.392 376.071 269.767C376.548 269.136 377.202 268.642 378.031 268.284C378.866 267.92 379.869 267.739 381.04 267.739C381.875 267.739 382.645 267.838 383.349 268.037C384.054 268.23 384.668 268.514 385.19 268.889C385.713 269.259 386.116 269.713 386.401 270.253C386.69 270.793 386.835 271.409 386.835 272.102V281H382.915V279.176H382.812C382.58 279.619 382.281 279.994 381.918 280.301C381.56 280.608 381.136 280.838 380.648 280.991C380.165 281.145 379.619 281.222 379.011 281.222ZM380.298 278.494C380.747 278.494 381.151 278.403 381.509 278.222C381.872 278.04 382.162 277.79 382.378 277.472C382.594 277.148 382.702 276.773 382.702 276.347V275.102C382.582 275.165 382.438 275.222 382.267 275.273C382.102 275.324 381.92 275.372 381.722 275.418C381.523 275.463 381.318 275.503 381.108 275.537C380.898 275.571 380.696 275.602 380.503 275.631C380.111 275.693 379.776 275.79 379.497 275.92C379.224 276.051 379.014 276.222 378.866 276.432C378.724 276.636 378.653 276.881 378.653 277.165C378.653 277.597 378.807 277.926 379.114 278.153C379.426 278.381 379.821 278.494 380.298 278.494ZM393.551 273.534V281H389.384V267.909H393.347V270.312H393.491C393.781 269.511 394.276 268.884 394.974 268.429C395.673 267.969 396.506 267.739 397.472 267.739C398.392 267.739 399.19 267.946 399.866 268.361C400.548 268.77 401.077 269.344 401.452 270.082C401.832 270.815 402.02 271.673 402.014 272.656V281H397.847V273.474C397.852 272.747 397.668 272.179 397.293 271.77C396.923 271.361 396.409 271.156 395.75 271.156C395.312 271.156 394.926 271.253 394.591 271.446C394.261 271.634 394.006 271.903 393.824 272.256C393.648 272.608 393.557 273.034 393.551 273.534ZM418.197 275.349V267.909H422.356V281H418.384V278.562H418.248C417.958 279.364 417.464 280 416.765 280.472C416.072 280.937 415.234 281.17 414.251 281.17C413.359 281.17 412.575 280.966 411.898 280.557C411.222 280.148 410.697 279.577 410.322 278.844C409.947 278.105 409.756 277.241 409.751 276.253V267.909H413.918V275.435C413.924 276.145 414.112 276.705 414.481 277.114C414.85 277.523 415.353 277.727 415.989 277.727C416.404 277.727 416.776 277.636 417.106 277.455C417.441 277.267 417.705 276.997 417.898 276.645C418.097 276.287 418.197 275.855 418.197 275.349ZM429.176 273.534V281H425.009V267.909H428.972V270.312H429.116C429.406 269.511 429.901 268.884 430.599 268.429C431.298 267.969 432.131 267.739 433.097 267.739C434.017 267.739 434.815 267.946 435.491 268.361C436.173 268.77 436.702 269.344 437.077 270.082C437.457 270.815 437.645 271.673 437.639 272.656V281H433.472V273.474C433.477 272.747 433.293 272.179 432.918 271.77C432.548 271.361 432.034 271.156 431.375 271.156C430.938 271.156 430.551 271.253 430.216 271.446C429.886 271.634 429.631 271.903 429.449 272.256C429.273 272.608 429.182 273.034 429.176 273.534ZM448.665 275.349V267.909H452.825V281H448.853V278.562H448.717C448.427 279.364 447.933 280 447.234 280.472C446.54 280.937 445.702 281.17 444.719 281.17C443.827 281.17 443.043 280.966 442.367 280.557C441.691 280.148 441.165 279.577 440.79 278.844C440.415 278.105 440.225 277.241 440.219 276.253V267.909H444.387V275.435C444.393 276.145 444.58 276.705 444.95 277.114C445.319 277.523 445.822 277.727 446.458 277.727C446.873 277.727 447.245 277.636 447.575 277.455C447.91 277.267 448.174 276.997 448.367 276.645C448.566 276.287 448.665 275.855 448.665 275.349ZM466.906 271.906L463.08 272.009C463.04 271.736 462.932 271.494 462.756 271.284C462.58 271.068 462.349 270.901 462.065 270.781C461.787 270.656 461.463 270.594 461.094 270.594C460.611 270.594 460.199 270.69 459.858 270.884C459.523 271.077 459.358 271.338 459.364 271.668C459.358 271.923 459.46 272.145 459.67 272.332C459.886 272.52 460.27 272.67 460.821 272.784L463.344 273.261C464.651 273.511 465.622 273.926 466.259 274.506C466.901 275.085 467.224 275.852 467.23 276.807C467.224 277.705 466.957 278.486 466.429 279.151C465.906 279.815 465.19 280.332 464.281 280.702C463.372 281.065 462.332 281.247 461.162 281.247C459.293 281.247 457.818 280.864 456.739 280.097C455.665 279.324 455.051 278.29 454.898 276.994L459.014 276.892C459.105 277.369 459.341 277.733 459.722 277.983C460.102 278.233 460.588 278.358 461.179 278.358C461.713 278.358 462.148 278.259 462.483 278.06C462.818 277.861 462.989 277.597 462.994 277.267C462.989 276.972 462.858 276.736 462.602 276.56C462.347 276.378 461.946 276.236 461.401 276.134L459.116 275.699C457.804 275.46 456.827 275.02 456.185 274.378C455.543 273.73 455.224 272.906 455.23 271.906C455.224 271.031 455.457 270.284 455.929 269.665C456.401 269.04 457.071 268.562 457.94 268.233C458.81 267.903 459.835 267.739 461.017 267.739C462.79 267.739 464.188 268.111 465.21 268.855C466.233 269.594 466.798 270.611 466.906 271.906ZM477.728 275.349V267.909H481.887V281H477.915V278.562H477.779C477.489 279.364 476.995 280 476.296 280.472C475.603 280.937 474.765 281.17 473.782 281.17C472.89 281.17 472.106 280.966 471.43 280.557C470.754 280.148 470.228 279.577 469.853 278.844C469.478 278.105 469.288 277.241 469.282 276.253V267.909H473.45V275.435C473.455 276.145 473.643 276.705 474.012 277.114C474.381 277.523 474.884 277.727 475.521 277.727C475.935 277.727 476.308 277.636 476.637 277.455C476.972 277.267 477.237 276.997 477.43 276.645C477.629 276.287 477.728 275.855 477.728 275.349ZM488.23 281.222C487.395 281.222 486.653 281.082 486.006 280.804C485.364 280.52 484.855 280.094 484.48 279.526C484.111 278.952 483.926 278.233 483.926 277.369C483.926 276.642 484.054 276.028 484.31 275.528C484.565 275.028 484.918 274.622 485.366 274.31C485.815 273.997 486.332 273.761 486.918 273.602C487.503 273.437 488.128 273.327 488.793 273.27C489.537 273.202 490.136 273.131 490.591 273.057C491.045 272.977 491.375 272.866 491.58 272.724C491.79 272.577 491.895 272.369 491.895 272.102V272.06C491.895 271.622 491.744 271.284 491.443 271.045C491.142 270.807 490.736 270.688 490.224 270.688C489.673 270.688 489.23 270.807 488.895 271.045C488.56 271.284 488.347 271.614 488.256 272.034L484.412 271.898C484.526 271.102 484.818 270.392 485.29 269.767C485.767 269.136 486.42 268.642 487.25 268.284C488.085 267.92 489.088 267.739 490.259 267.739C491.094 267.739 491.864 267.838 492.568 268.037C493.273 268.23 493.886 268.514 494.409 268.889C494.932 269.259 495.335 269.713 495.619 270.253C495.909 270.793 496.054 271.409 496.054 272.102V281H492.134V279.176H492.031C491.798 279.619 491.5 279.994 491.136 280.301C490.778 280.608 490.355 280.838 489.866 280.991C489.384 281.145 488.838 281.222 488.23 281.222ZM489.517 278.494C489.966 278.494 490.369 278.403 490.727 278.222C491.091 278.04 491.381 277.79 491.597 277.472C491.813 277.148 491.92 276.773 491.92 276.347V275.102C491.801 275.165 491.656 275.222 491.486 275.273C491.321 275.324 491.139 275.372 490.94 275.418C490.741 275.463 490.537 275.503 490.327 275.537C490.116 275.571 489.915 275.602 489.722 275.631C489.33 275.693 488.994 275.79 488.716 275.92C488.443 276.051 488.233 276.222 488.085 276.432C487.943 276.636 487.872 276.881 487.872 277.165C487.872 277.597 488.026 277.926 488.332 278.153C488.645 278.381 489.04 278.494 489.517 278.494ZM502.77 263.545V281H498.602V263.545H502.77ZM513.025 281L509.616 267.909H513.8L515.565 276.295H515.675L517.567 267.909H521.65L523.593 276.236H523.704L525.417 267.909H529.602L526.184 281H521.727L519.681 273.372H519.536L517.491 281H513.025ZM537.112 281.247C535.743 281.247 534.561 280.977 533.567 280.438C532.578 279.892 531.817 279.116 531.283 278.111C530.754 277.099 530.49 275.898 530.49 274.506C530.49 273.153 530.757 271.972 531.291 270.96C531.825 269.943 532.578 269.153 533.55 268.591C534.521 268.023 535.666 267.739 536.984 267.739C537.916 267.739 538.768 267.884 539.541 268.173C540.314 268.463 540.982 268.892 541.544 269.46C542.107 270.028 542.544 270.73 542.857 271.565C543.169 272.395 543.325 273.347 543.325 274.42V275.46H531.947V273.04H539.447C539.442 272.597 539.337 272.202 539.132 271.855C538.928 271.509 538.646 271.239 538.288 271.045C537.936 270.847 537.53 270.747 537.07 270.747C536.604 270.747 536.186 270.852 535.817 271.062C535.447 271.267 535.155 271.548 534.939 271.906C534.723 272.259 534.609 272.659 534.598 273.108V275.571C534.598 276.105 534.703 276.574 534.913 276.977C535.124 277.375 535.422 277.685 535.808 277.906C536.195 278.128 536.655 278.239 537.189 278.239C537.558 278.239 537.893 278.187 538.195 278.085C538.496 277.983 538.754 277.832 538.97 277.634C539.186 277.435 539.348 277.19 539.456 276.901L543.283 277.011C543.124 277.869 542.774 278.616 542.234 279.253C541.7 279.884 540.999 280.375 540.129 280.727C539.26 281.074 538.254 281.247 537.112 281.247ZM545.454 281V263.545H549.621V270.151H549.707C549.877 269.753 550.119 269.369 550.431 269C550.749 268.631 551.153 268.33 551.641 268.097C552.136 267.858 552.727 267.739 553.414 267.739C554.323 267.739 555.173 267.977 555.962 268.455C556.758 268.932 557.4 269.668 557.888 270.662C558.377 271.656 558.621 272.923 558.621 274.463C558.621 275.946 558.386 277.188 557.914 278.188C557.448 279.188 556.817 279.938 556.022 280.438C555.232 280.938 554.354 281.188 553.388 281.188C552.729 281.188 552.158 281.08 551.675 280.864C551.192 280.648 550.786 280.364 550.457 280.011C550.133 279.659 549.883 279.281 549.707 278.878H549.579V281H545.454ZM549.536 274.455C549.536 275.159 549.63 275.773 549.817 276.295C550.011 276.818 550.286 277.224 550.644 277.514C551.008 277.798 551.442 277.94 551.948 277.94C552.46 277.94 552.894 277.798 553.252 277.514C553.61 277.224 553.88 276.818 554.062 276.295C554.249 275.773 554.343 275.159 554.343 274.455C554.343 273.75 554.249 273.139 554.062 272.622C553.88 272.105 553.61 271.705 553.252 271.42C552.9 271.136 552.465 270.994 551.948 270.994C551.437 270.994 551.002 271.134 550.644 271.412C550.286 271.69 550.011 272.088 549.817 272.605C549.63 273.122 549.536 273.739 549.536 274.455ZM570.743 281.188C569.777 281.188 568.899 280.938 568.109 280.438C567.32 279.938 566.689 279.188 566.217 278.188C565.746 277.188 565.51 275.946 565.51 274.463C565.51 272.923 565.754 271.656 566.243 270.662C566.732 269.668 567.371 268.932 568.161 268.455C568.956 267.977 569.811 267.739 570.726 267.739C571.413 267.739 572.001 267.858 572.49 268.097C572.979 268.33 573.382 268.631 573.7 269C574.018 269.369 574.26 269.753 574.425 270.151H574.51V263.545H578.678V281H574.553V278.878H574.425C574.249 279.281 573.999 279.659 573.675 280.011C573.351 280.364 572.945 280.648 572.456 280.864C571.973 281.08 571.402 281.188 570.743 281.188ZM572.192 277.94C572.697 277.94 573.129 277.798 573.487 277.514C573.845 277.224 574.121 276.818 574.314 276.295C574.507 275.773 574.604 275.159 574.604 274.455C574.604 273.739 574.507 273.122 574.314 272.605C574.126 272.088 573.851 271.69 573.487 271.412C573.129 271.134 572.697 270.994 572.192 270.994C571.675 270.994 571.237 271.136 570.879 271.42C570.521 271.705 570.249 272.105 570.061 272.622C569.879 273.139 569.788 273.75 569.788 274.455C569.788 275.159 569.882 275.773 570.07 276.295C570.257 276.818 570.527 277.224 570.879 277.514C571.237 277.798 571.675 277.94 572.192 277.94ZM587.433 281.247C586.063 281.247 584.881 280.977 583.887 280.438C582.898 279.892 582.137 279.116 581.603 278.111C581.075 277.099 580.81 275.898 580.81 274.506C580.81 273.153 581.077 271.972 581.612 270.96C582.146 269.943 582.898 269.153 583.87 268.591C584.842 268.023 585.987 267.739 587.305 267.739C588.237 267.739 589.089 267.884 589.862 268.173C590.634 268.463 591.302 268.892 591.864 269.46C592.427 270.028 592.864 270.73 593.177 271.565C593.489 272.395 593.646 273.347 593.646 274.42V275.46H582.268V273.04H589.768C589.762 272.597 589.657 272.202 589.452 271.855C589.248 271.509 588.967 271.239 588.609 271.045C588.256 270.847 587.85 270.747 587.39 270.747C586.924 270.747 586.506 270.852 586.137 271.062C585.768 271.267 585.475 271.548 585.259 271.906C585.043 272.259 584.93 272.659 584.918 273.108V275.571C584.918 276.105 585.023 276.574 585.234 276.977C585.444 277.375 585.742 277.685 586.129 277.906C586.515 278.128 586.975 278.239 587.509 278.239C587.879 278.239 588.214 278.187 588.515 278.085C588.816 277.983 589.075 277.832 589.29 277.634C589.506 277.435 589.668 277.19 589.776 276.901L593.603 277.011C593.444 277.869 593.094 278.616 592.555 279.253C592.021 279.884 591.319 280.375 590.45 280.727C589.58 281.074 588.575 281.247 587.433 281.247ZM608.121 267.909L603.63 281H598.857L594.374 267.909H598.763L601.175 276.926H601.312L603.732 267.909H608.121ZM615.417 281.247C614.048 281.247 612.866 280.977 611.871 280.438C610.883 279.892 610.121 279.116 609.587 278.111C609.059 277.099 608.795 275.898 608.795 274.506C608.795 273.153 609.062 271.972 609.596 270.96C610.13 269.943 610.883 269.153 611.854 268.591C612.826 268.023 613.971 267.739 615.289 267.739C616.221 267.739 617.073 267.884 617.846 268.173C618.619 268.463 619.286 268.892 619.849 269.46C620.411 270.028 620.849 270.73 621.161 271.565C621.474 272.395 621.63 273.347 621.63 274.42V275.46H610.252V273.04H617.752C617.746 272.597 617.641 272.202 617.437 271.855C617.232 271.509 616.951 271.239 616.593 271.045C616.241 270.847 615.835 270.747 615.374 270.747C614.908 270.747 614.491 270.852 614.121 271.062C613.752 271.267 613.46 271.548 613.244 271.906C613.028 272.259 612.914 272.659 612.903 273.108V275.571C612.903 276.105 613.008 276.574 613.218 276.977C613.428 277.375 613.727 277.685 614.113 277.906C614.499 278.128 614.96 278.239 615.494 278.239C615.863 278.239 616.198 278.187 616.499 278.085C616.8 277.983 617.059 277.832 617.275 277.634C617.491 277.435 617.653 277.19 617.761 276.901L621.587 277.011C621.428 277.869 621.079 278.616 620.539 279.253C620.005 279.884 619.303 280.375 618.434 280.727C617.565 281.074 616.559 281.247 615.417 281.247ZM627.926 263.545V281H623.759V263.545H627.926ZM636.69 281.247C635.315 281.247 634.133 280.966 633.144 280.403C632.161 279.835 631.403 279.045 630.869 278.034C630.34 277.017 630.076 275.838 630.076 274.497C630.076 273.151 630.34 271.972 630.869 270.96C631.403 269.943 632.161 269.153 633.144 268.591C634.133 268.023 635.315 267.739 636.69 267.739C638.065 267.739 639.244 268.023 640.227 268.591C641.215 269.153 641.974 269.943 642.502 270.96C643.036 271.972 643.303 273.151 643.303 274.497C643.303 275.838 643.036 277.017 642.502 278.034C641.974 279.045 641.215 279.835 640.227 280.403C639.244 280.966 638.065 281.247 636.69 281.247ZM636.715 278.102C637.215 278.102 637.638 277.949 637.985 277.642C638.332 277.335 638.596 276.909 638.778 276.364C638.965 275.818 639.059 275.187 639.059 274.472C639.059 273.744 638.965 273.108 638.778 272.562C638.596 272.017 638.332 271.591 637.985 271.284C637.638 270.977 637.215 270.824 636.715 270.824C636.198 270.824 635.761 270.977 635.403 271.284C635.05 271.591 634.781 272.017 634.593 272.562C634.411 273.108 634.32 273.744 634.32 274.472C634.32 275.187 634.411 275.818 634.593 276.364C634.781 276.909 635.05 277.335 635.403 277.642C635.761 277.949 636.198 278.102 636.715 278.102ZM645.438 285.909V267.909H649.563V270.151H649.691C649.862 269.753 650.103 269.369 650.415 269C650.734 268.631 651.137 268.33 651.626 268.097C652.12 267.858 652.711 267.739 653.398 267.739C654.308 267.739 655.157 267.977 655.947 268.455C656.742 268.932 657.384 269.668 657.873 270.662C658.362 271.656 658.606 272.923 658.606 274.463C658.606 275.946 658.37 277.188 657.898 278.188C657.433 279.188 656.802 279.938 656.006 280.438C655.217 280.938 654.339 281.188 653.373 281.188C652.714 281.188 652.143 281.08 651.66 280.864C651.177 280.648 650.771 280.364 650.441 280.011C650.117 279.659 649.867 279.281 649.691 278.878H649.606V285.909H645.438ZM649.521 274.455C649.521 275.159 649.614 275.773 649.802 276.295C649.995 276.818 650.271 277.224 650.629 277.514C650.992 277.798 651.427 277.94 651.933 277.94C652.444 277.94 652.879 277.798 653.237 277.514C653.594 277.224 653.864 276.818 654.046 276.295C654.234 275.773 654.327 275.159 654.327 274.455C654.327 273.75 654.234 273.139 654.046 272.622C653.864 272.105 653.594 271.705 653.237 271.42C652.884 271.136 652.45 270.994 651.933 270.994C651.421 270.994 650.987 271.134 650.629 271.412C650.271 271.69 649.995 272.088 649.802 272.605C649.614 273.122 649.521 273.739 649.521 274.455ZM660.79 285.909V267.909H664.915V270.151H665.043C665.213 269.753 665.455 269.369 665.767 269C666.085 268.631 666.489 268.33 666.977 268.097C667.472 267.858 668.062 267.739 668.75 267.739C669.659 267.739 670.509 267.977 671.298 268.455C672.094 268.932 672.736 269.668 673.224 270.662C673.713 271.656 673.957 272.923 673.957 274.463C673.957 275.946 673.722 277.188 673.25 278.188C672.784 279.188 672.153 279.938 671.358 280.438C670.568 280.938 669.69 281.188 668.724 281.188C668.065 281.188 667.494 281.08 667.011 280.864C666.528 280.648 666.122 280.364 665.793 280.011C665.469 279.659 665.219 279.281 665.043 278.878H664.957V285.909H660.79ZM664.872 274.455C664.872 275.159 664.966 275.773 665.153 276.295C665.347 276.818 665.622 277.224 665.98 277.514C666.344 277.798 666.778 277.94 667.284 277.94C667.795 277.94 668.23 277.798 668.588 277.514C668.946 277.224 669.216 276.818 669.398 276.295C669.585 275.773 669.679 275.159 669.679 274.455C669.679 273.75 669.585 273.139 669.398 272.622C669.216 272.105 668.946 271.705 668.588 271.42C668.236 271.136 667.801 270.994 667.284 270.994C666.773 270.994 666.338 271.134 665.98 271.412C665.622 271.69 665.347 272.088 665.153 272.605C664.966 273.122 664.872 273.739 664.872 274.455ZM682.261 281.247C680.891 281.247 679.71 280.977 678.715 280.438C677.727 279.892 676.965 279.116 676.431 278.111C675.903 277.099 675.638 275.898 675.638 274.506C675.638 273.153 675.906 271.972 676.44 270.96C676.974 269.943 677.727 269.153 678.698 268.591C679.67 268.023 680.815 267.739 682.133 267.739C683.065 267.739 683.917 267.884 684.69 268.173C685.462 268.463 686.13 268.892 686.692 269.46C687.255 270.028 687.692 270.73 688.005 271.565C688.317 272.395 688.474 273.347 688.474 274.42V275.46H677.096V273.04H684.596C684.59 272.597 684.485 272.202 684.281 271.855C684.076 271.509 683.795 271.239 683.437 271.045C683.085 270.847 682.678 270.747 682.218 270.747C681.752 270.747 681.335 270.852 680.965 271.062C680.596 271.267 680.303 271.548 680.087 271.906C679.871 272.259 679.758 272.659 679.746 273.108V275.571C679.746 276.105 679.852 276.574 680.062 276.977C680.272 277.375 680.57 277.685 680.957 277.906C681.343 278.128 681.803 278.239 682.337 278.239C682.707 278.239 683.042 278.187 683.343 278.085C683.644 277.983 683.903 277.832 684.119 277.634C684.335 277.435 684.496 277.19 684.604 276.901L688.431 277.011C688.272 277.869 687.923 278.616 687.383 279.253C686.849 279.884 686.147 280.375 685.278 280.727C684.408 281.074 683.403 281.247 682.261 281.247ZM690.602 281V267.909H694.651V270.295H694.787C695.026 269.432 695.415 268.79 695.955 268.369C696.494 267.943 697.122 267.73 697.838 267.73C698.031 267.73 698.23 267.744 698.435 267.773C698.639 267.795 698.83 267.832 699.006 267.884V271.506C698.807 271.437 698.545 271.384 698.222 271.344C697.903 271.304 697.619 271.284 697.369 271.284C696.875 271.284 696.429 271.395 696.031 271.616C695.639 271.832 695.33 272.136 695.102 272.528C694.881 272.915 694.77 273.369 694.77 273.892V281H690.602Z" fill="#EAEAEB"/>
</svg>
