<svg width="719" height="286" viewBox="0 0 719 286" fill="none" xmlns="http://www.w3.org/2000/svg">
<path d="M217.156 146V36.9091H293.222V58.3224H243.524V80.6946H289.333V102.161H243.524V124.587H293.222V146H217.156ZM309.735 146V64.1818H335.036V79.0966H335.889C337.38 73.6989 339.813 69.6861 343.186 67.0582C346.56 64.3949 350.484 63.0632 354.958 63.0632C356.166 63.0632 357.409 63.152 358.687 63.3295C359.965 63.4716 361.155 63.7024 362.256 64.022V86.6605C361.013 86.2344 359.379 85.897 357.355 85.6484C355.367 85.3999 353.591 85.2756 352.029 85.2756C348.939 85.2756 346.151 85.968 343.666 87.353C341.215 88.7024 339.28 90.6023 337.86 93.0526C336.475 95.4673 335.782 98.3082 335.782 101.575V146H309.735ZM372.869 146V64.1818H398.917V146H372.869ZM385.92 54.647C382.262 54.647 379.119 53.4396 376.491 51.0249C373.864 48.5746 372.55 45.6271 372.55 42.1825C372.55 38.7734 373.864 35.8615 376.491 33.4467C379.119 30.9964 382.262 29.7713 385.92 29.7713C389.613 29.7713 392.756 30.9964 395.348 33.4467C397.976 35.8615 399.29 38.7734 399.29 42.1825C399.29 45.6271 397.976 48.5746 395.348 51.0249C392.756 53.4396 389.613 54.647 385.92 54.647ZM453.689 147.545C445.059 147.545 437.655 145.769 431.476 142.218C425.333 138.667 420.61 133.731 417.307 127.41C414.005 121.053 412.353 113.702 412.353 105.357C412.353 96.9766 414.005 89.6257 417.307 83.3047C420.645 76.9482 425.386 71.9943 431.53 68.4432C437.709 64.892 445.077 63.1165 453.635 63.1165C461.199 63.1165 467.787 64.4837 473.398 67.218C479.044 69.9524 483.447 73.8232 486.608 78.8303C489.804 83.8018 491.491 89.6435 491.668 96.3551H467.325C466.828 92.1648 465.407 88.88 463.064 86.5007C460.755 84.1214 457.737 82.9318 454.008 82.9318C450.99 82.9318 448.344 83.7841 446.072 85.4886C443.799 87.1577 442.023 89.6435 440.745 92.946C439.502 96.2131 438.88 100.261 438.88 105.091C438.88 109.92 439.502 114.004 440.745 117.342C442.023 120.645 443.799 123.148 446.072 124.853C448.344 126.522 450.99 127.357 454.008 127.357C456.423 127.357 458.554 126.842 460.4 125.812C462.282 124.782 463.827 123.273 465.035 121.284C466.242 119.26 467.005 116.81 467.325 113.933H491.668C491.42 120.68 489.733 126.575 486.608 131.618C483.518 136.661 479.168 140.585 473.557 143.39C467.982 146.16 461.359 147.545 453.689 147.545Z" fill="#FB3640"/>
<path d="M8.25639 235V125.909H34.6236V213.587H80.0071V235H8.25639ZM116.721 236.385C111.501 236.385 106.867 235.515 102.819 233.775C98.8059 231.999 95.6277 229.336 93.2839 225.785C90.9757 222.198 89.8216 217.706 89.8216 212.308C89.8216 207.763 90.6206 203.928 92.2186 200.803C93.8166 197.678 96.0183 195.138 98.8237 193.185C101.629 191.232 104.861 189.759 108.518 188.764C112.176 187.734 116.082 187.042 120.237 186.687C124.889 186.261 128.635 185.817 131.476 185.355C134.317 184.858 136.377 184.165 137.655 183.278C138.969 182.354 139.626 181.058 139.626 179.389V179.123C139.626 176.388 138.685 174.276 136.803 172.784C134.921 171.293 132.382 170.547 129.186 170.547C125.741 170.547 122.971 171.293 120.876 172.784C118.781 174.276 117.449 176.335 116.881 178.963L92.8578 178.111C93.568 173.139 95.3968 168.7 98.3443 164.794C101.327 160.852 105.411 157.763 110.596 155.526C115.816 153.253 122.084 152.116 129.399 152.116C134.619 152.116 139.431 152.738 143.834 153.981C148.238 155.188 152.073 156.964 155.34 159.308C158.607 161.616 161.128 164.457 162.904 167.83C164.715 171.204 165.621 175.057 165.621 179.389V235H141.118V223.601H140.479C139.023 226.371 137.158 228.714 134.885 230.632C132.648 232.55 130.003 233.988 126.949 234.947C123.93 235.906 120.521 236.385 116.721 236.385ZM124.765 219.339C127.57 219.339 130.091 218.771 132.329 217.635C134.601 216.499 136.412 214.936 137.762 212.947C139.111 210.923 139.786 208.58 139.786 205.916V198.139C139.04 198.53 138.135 198.885 137.069 199.205C136.04 199.524 134.903 199.826 133.66 200.11C132.417 200.394 131.139 200.643 129.825 200.856C128.511 201.069 127.251 201.264 126.043 201.442C123.593 201.832 121.498 202.436 119.758 203.253C118.053 204.07 116.739 205.135 115.816 206.449C114.928 207.727 114.484 209.254 114.484 211.03C114.484 213.729 115.443 215.788 117.361 217.209C119.314 218.629 121.782 219.339 124.765 219.339ZM207.595 188.338V235H181.547V153.182H206.317V168.203H207.222C209.033 163.196 212.123 159.272 216.491 156.431C220.858 153.555 226.061 152.116 232.098 152.116C237.851 152.116 242.84 153.413 247.066 156.005C251.327 158.562 254.63 162.148 256.974 166.765C259.353 171.346 260.525 176.708 260.489 182.852V235H234.442V187.965C234.477 183.42 233.323 179.869 230.979 177.312C228.671 174.755 225.457 173.477 221.338 173.477C218.604 173.477 216.189 174.08 214.094 175.288C212.034 176.46 210.436 178.146 209.3 180.348C208.199 182.55 207.631 185.213 207.595 188.338ZM314.755 267.386C306.978 267.386 300.32 266.303 294.78 264.137C289.24 261.971 284.89 259.006 281.729 255.241C278.569 251.477 276.669 247.216 276.03 242.457L300.692 241.072C301.154 242.741 302.006 244.197 303.249 245.44C304.528 246.683 306.179 247.642 308.203 248.317C310.263 248.991 312.678 249.329 315.447 249.329C319.815 249.329 323.42 248.263 326.261 246.133C329.137 244.038 330.575 240.362 330.575 235.107V220.724H329.67C328.64 223.246 327.077 225.501 324.982 227.489C322.887 229.478 320.277 231.04 317.152 232.177C314.063 233.313 310.511 233.881 306.499 233.881C300.533 233.881 295.064 232.496 290.092 229.727C285.156 226.921 281.197 222.589 278.214 216.729C275.266 210.835 273.793 203.253 273.793 193.984C273.793 184.432 275.32 176.566 278.374 170.387C281.428 164.173 285.423 159.574 290.359 156.591C295.33 153.608 300.675 152.116 306.392 152.116C310.689 152.116 314.364 152.862 317.418 154.354C320.508 155.81 323.047 157.692 325.036 160C327.024 162.308 328.533 164.705 329.563 167.191H330.309V153.182H356.25V235.32C356.25 242.244 354.51 248.086 351.03 252.844C347.55 257.603 342.685 261.207 336.435 263.658C330.185 266.143 322.958 267.386 314.755 267.386ZM315.554 214.918C318.714 214.918 321.413 214.084 323.651 212.415C325.888 210.746 327.61 208.349 328.817 205.224C330.025 202.099 330.629 198.352 330.629 193.984C330.629 189.545 330.025 185.728 328.817 182.532C327.646 179.3 325.923 176.815 323.651 175.075C321.413 173.335 318.714 172.464 315.554 172.464C312.322 172.464 309.588 173.352 307.351 175.128C305.114 176.903 303.409 179.407 302.237 182.638C301.101 185.835 300.533 189.616 300.533 193.984C300.533 198.352 301.119 202.099 302.29 205.224C303.462 208.349 305.149 210.746 307.351 212.415C309.588 214.084 312.322 214.918 315.554 214.918ZM398.904 125.909V235H372.856V125.909H398.904ZM453.675 236.545C445.082 236.545 437.695 234.787 431.516 231.271C425.373 227.72 420.632 222.784 417.294 216.463C413.991 210.107 412.34 202.738 412.34 194.357C412.34 185.941 413.991 178.572 417.294 172.251C420.632 165.895 425.373 160.959 431.516 157.443C437.695 153.892 445.082 152.116 453.675 152.116C462.269 152.116 469.638 153.892 475.781 157.443C481.96 160.959 486.701 165.895 490.004 172.251C493.342 178.572 495.011 185.941 495.011 194.357C495.011 202.738 493.342 210.107 490.004 216.463C486.701 222.784 481.96 227.72 475.781 231.271C469.638 234.787 462.269 236.545 453.675 236.545ZM453.835 216.889C456.96 216.889 459.606 215.93 461.772 214.013C463.938 212.095 465.589 209.432 466.726 206.023C467.898 202.614 468.484 198.672 468.484 194.197C468.484 189.652 467.898 185.675 466.726 182.266C465.589 178.857 463.938 176.193 461.772 174.276C459.606 172.358 456.96 171.399 453.835 171.399C450.604 171.399 447.869 172.358 445.632 174.276C443.43 176.193 441.744 178.857 440.572 182.266C439.435 185.675 438.867 189.652 438.867 194.197C438.867 198.672 439.435 202.614 440.572 206.023C441.744 209.432 443.43 212.095 445.632 214.013C447.869 215.93 450.604 216.889 453.835 216.889ZM508.354 235V153.182H534.402V235H508.354ZM521.404 143.647C517.747 143.647 514.604 142.44 511.976 140.025C509.348 137.575 508.034 134.627 508.034 131.183C508.034 127.773 509.348 124.862 511.976 122.447C514.604 119.996 517.747 118.771 521.404 118.771C525.098 118.771 528.24 119.996 530.833 122.447C533.461 124.862 534.775 127.773 534.775 131.183C534.775 134.627 533.461 137.575 530.833 140.025C528.24 142.44 525.098 143.647 521.404 143.647ZM622.412 178.164L598.495 178.803C598.247 177.099 597.572 175.589 596.471 174.276C595.37 172.926 593.932 171.879 592.156 171.133C590.416 170.352 588.392 169.961 586.084 169.961C583.066 169.961 580.491 170.565 578.36 171.772C576.265 172.979 575.235 174.613 575.271 176.673C575.235 178.271 575.874 179.656 577.188 180.827C578.538 181.999 580.935 182.94 584.379 183.651L600.146 186.634C608.314 188.196 614.387 190.788 618.364 194.411C622.377 198.033 624.401 202.827 624.436 208.793C624.401 214.403 622.732 219.286 619.429 223.441C616.162 227.596 611.688 230.827 606.006 233.136C600.324 235.408 593.825 236.545 586.51 236.545C574.827 236.545 565.612 234.148 558.865 229.354C552.153 224.524 548.318 218.061 547.359 209.964L573.087 209.325C573.655 212.308 575.129 214.581 577.508 216.143C579.887 217.706 582.923 218.487 586.617 218.487C589.955 218.487 592.671 217.866 594.767 216.623C596.862 215.38 597.927 213.729 597.963 211.669C597.927 209.822 597.11 208.349 595.512 207.248C593.914 206.112 591.411 205.224 588.002 204.585L573.726 201.868C565.523 200.376 559.415 197.624 555.402 193.612C551.389 189.563 549.401 184.414 549.436 178.164C549.401 172.695 550.857 168.026 553.804 164.155C556.752 160.249 560.942 157.266 566.375 155.206C571.808 153.146 578.218 152.116 585.605 152.116C596.684 152.116 605.42 154.442 611.812 159.094C618.204 163.711 621.737 170.067 622.412 178.164Z" fill="#FB3640"/>
<path d="M371.429 280.24C370.524 280.24 369.721 280.089 369.019 279.788C368.324 279.48 367.773 279.018 367.366 278.403C366.966 277.781 366.766 277.002 366.766 276.067C366.766 275.279 366.905 274.614 367.182 274.072C367.459 273.531 367.84 273.091 368.327 272.752C368.813 272.414 369.373 272.158 370.007 271.986C370.641 271.807 371.318 271.687 372.038 271.626C372.845 271.552 373.494 271.475 373.987 271.395C374.479 271.309 374.836 271.189 375.058 271.035C375.285 270.875 375.399 270.65 375.399 270.361V270.315C375.399 269.841 375.236 269.474 374.91 269.216C374.584 268.957 374.143 268.828 373.589 268.828C372.992 268.828 372.512 268.957 372.149 269.216C371.786 269.474 371.555 269.831 371.457 270.287L367.293 270.139C367.416 269.277 367.733 268.508 368.244 267.831C368.761 267.148 369.469 266.612 370.367 266.224C371.272 265.83 372.358 265.634 373.626 265.634C374.531 265.634 375.365 265.741 376.129 265.957C376.892 266.166 377.557 266.474 378.123 266.88C378.689 267.28 379.126 267.772 379.434 268.357C379.748 268.942 379.905 269.61 379.905 270.361V280H375.658V278.024H375.547C375.295 278.504 374.971 278.911 374.577 279.243C374.19 279.575 373.731 279.825 373.202 279.991C372.679 280.157 372.088 280.24 371.429 280.24ZM372.823 277.286C373.309 277.286 373.746 277.187 374.134 276.99C374.528 276.793 374.842 276.522 375.076 276.178C375.31 275.827 375.427 275.42 375.427 274.959V273.611C375.298 273.679 375.141 273.74 374.956 273.795C374.777 273.851 374.58 273.903 374.365 273.952C374.15 274.002 373.928 274.045 373.7 274.082C373.473 274.119 373.254 274.152 373.045 274.183C372.62 274.251 372.257 274.356 371.955 274.497C371.66 274.639 371.432 274.823 371.272 275.051C371.118 275.273 371.041 275.537 371.041 275.845C371.041 276.313 371.207 276.67 371.54 276.916C371.878 277.162 372.306 277.286 372.823 277.286ZM387.18 271.912V280H382.665V265.818H386.959V268.422H387.116C387.43 267.554 387.965 266.874 388.722 266.381C389.479 265.883 390.381 265.634 391.428 265.634C392.425 265.634 393.29 265.858 394.022 266.308C394.761 266.751 395.333 267.372 395.739 268.173C396.152 268.967 396.355 269.896 396.349 270.961V280H391.834V271.847C391.84 271.059 391.64 270.444 391.234 270.001C390.834 269.558 390.277 269.336 389.562 269.336C389.089 269.336 388.67 269.441 388.307 269.65C387.95 269.853 387.673 270.145 387.476 270.527C387.285 270.909 387.187 271.37 387.18 271.912ZM413.88 273.879V265.818H418.385V280H414.083V277.359H413.935C413.621 278.227 413.086 278.917 412.329 279.428C411.578 279.932 410.67 280.185 409.605 280.185C408.639 280.185 407.789 279.963 407.057 279.52C406.324 279.077 405.755 278.458 405.349 277.664C404.942 276.864 404.736 275.928 404.73 274.857V265.818H409.245V273.971C409.251 274.74 409.454 275.347 409.854 275.79C410.254 276.233 410.799 276.455 411.488 276.455C411.938 276.455 412.341 276.356 412.698 276.159C413.061 275.956 413.347 275.664 413.557 275.282C413.772 274.894 413.88 274.426 413.88 273.879ZM425.774 271.912V280H421.259V265.818H425.553V268.422H425.71C426.023 267.554 426.559 266.874 427.316 266.381C428.073 265.883 428.975 265.634 430.021 265.634C431.018 265.634 431.883 265.858 432.616 266.308C433.354 266.751 433.927 267.372 434.333 268.173C434.746 268.967 434.949 269.896 434.942 270.961V280H430.428V271.847C430.434 271.059 430.234 270.444 429.827 270.001C429.427 269.558 428.87 269.336 428.156 269.336C427.682 269.336 427.264 269.441 426.901 269.65C426.544 269.853 426.267 270.145 426.07 270.527C425.879 270.909 425.78 271.37 425.774 271.912ZM446.888 273.879V265.818H451.393V280H447.091V277.359H446.943C446.629 278.227 446.094 278.917 445.336 279.428C444.586 279.932 443.678 280.185 442.613 280.185C441.646 280.185 440.797 279.963 440.064 279.52C439.332 279.077 438.763 278.458 438.356 277.664C437.95 276.864 437.744 275.928 437.738 274.857V265.818H442.253V273.971C442.259 274.74 442.462 275.347 442.862 275.79C443.262 276.233 443.807 276.455 444.496 276.455C444.946 276.455 445.349 276.356 445.706 276.159C446.069 275.956 446.355 275.664 446.564 275.282C446.78 274.894 446.888 274.426 446.888 273.879ZM466.648 270.148L462.503 270.259C462.46 269.964 462.343 269.702 462.152 269.474C461.961 269.241 461.712 269.059 461.404 268.93C461.103 268.794 460.752 268.727 460.352 268.727C459.828 268.727 459.382 268.831 459.013 269.04C458.65 269.25 458.471 269.533 458.477 269.89C458.471 270.167 458.582 270.407 458.81 270.61C459.044 270.813 459.459 270.976 460.056 271.099L462.789 271.616C464.205 271.887 465.257 272.337 465.947 272.964C466.642 273.592 466.993 274.423 466.999 275.457C466.993 276.43 466.704 277.276 466.131 277.996C465.565 278.717 464.79 279.277 463.805 279.677C462.82 280.071 461.693 280.268 460.425 280.268C458.4 280.268 456.803 279.852 455.634 279.021C454.47 278.184 453.805 277.064 453.639 275.661L458.099 275.55C458.197 276.067 458.453 276.461 458.865 276.732C459.277 277.002 459.804 277.138 460.444 277.138C461.022 277.138 461.493 277.03 461.857 276.815C462.22 276.599 462.404 276.313 462.411 275.956C462.404 275.636 462.263 275.38 461.986 275.19C461.709 274.993 461.275 274.839 460.684 274.728L458.21 274.257C456.788 273.999 455.729 273.522 455.033 272.826C454.338 272.124 453.993 271.232 453.999 270.148C453.993 269.201 454.246 268.391 454.756 267.72C455.267 267.043 455.994 266.526 456.935 266.169C457.877 265.812 458.988 265.634 460.268 265.634C462.189 265.634 463.703 266.037 464.811 266.843C465.919 267.643 466.531 268.745 466.648 270.148ZM478.372 273.879V265.818H482.878V280H478.575V277.359H478.427C478.113 278.227 477.578 278.917 476.821 279.428C476.07 279.932 475.162 280.185 474.097 280.185C473.131 280.185 472.281 279.963 471.549 279.52C470.816 279.077 470.247 278.458 469.841 277.664C469.434 276.864 469.228 275.928 469.222 274.857V265.818H473.737V273.971C473.743 274.74 473.946 275.347 474.346 275.79C474.747 276.233 475.291 276.455 475.981 276.455C476.43 276.455 476.833 276.356 477.19 276.159C477.553 275.956 477.84 275.664 478.049 275.282C478.264 274.894 478.372 274.426 478.372 273.879ZM489.749 280.24C488.844 280.24 488.041 280.089 487.339 279.788C486.644 279.48 486.093 279.018 485.687 278.403C485.287 277.781 485.087 277.002 485.087 276.067C485.087 275.279 485.225 274.614 485.502 274.072C485.779 273.531 486.161 273.091 486.647 272.752C487.133 272.414 487.693 272.158 488.327 271.986C488.961 271.807 489.638 271.687 490.359 271.626C491.165 271.552 491.814 271.475 492.307 271.395C492.799 271.309 493.156 271.189 493.378 271.035C493.606 270.875 493.719 270.65 493.719 270.361V270.315C493.719 269.841 493.556 269.474 493.23 269.216C492.904 268.957 492.464 268.828 491.91 268.828C491.313 268.828 490.833 268.957 490.469 269.216C490.106 269.474 489.875 269.831 489.777 270.287L485.613 270.139C485.736 269.277 486.053 268.508 486.564 267.831C487.081 267.148 487.789 266.612 488.688 266.224C489.592 265.83 490.679 265.634 491.947 265.634C492.852 265.634 493.686 265.741 494.449 265.957C495.212 266.166 495.877 266.474 496.443 266.88C497.009 267.28 497.446 267.772 497.754 268.357C498.068 268.942 498.225 269.61 498.225 270.361V280H493.978V278.024H493.867C493.615 278.504 493.292 278.911 492.898 279.243C492.51 279.575 492.051 279.825 491.522 279.991C490.999 280.157 490.408 280.24 489.749 280.24ZM491.143 277.286C491.63 277.286 492.067 277.187 492.455 276.99C492.848 276.793 493.162 276.522 493.396 276.178C493.63 275.827 493.747 275.42 493.747 274.959V273.611C493.618 273.679 493.461 273.74 493.276 273.795C493.098 273.851 492.901 273.903 492.685 273.952C492.47 274.002 492.248 274.045 492.021 274.082C491.793 274.119 491.574 274.152 491.365 274.183C490.94 274.251 490.577 274.356 490.276 274.497C489.98 274.639 489.752 274.823 489.592 275.051C489.438 275.273 489.362 275.537 489.362 275.845C489.362 276.313 489.528 276.67 489.86 276.916C490.199 277.162 490.626 277.286 491.143 277.286ZM505.501 261.091V280H500.986V261.091H505.501ZM516.61 280L512.917 265.818H517.45L519.362 274.903H519.482L521.531 265.818H525.954L528.059 274.839H528.179L530.035 265.818H534.568L530.866 280H526.037L523.821 271.737H523.664L521.448 280H516.61ZM542.705 280.268C541.221 280.268 539.941 279.975 538.864 279.391C537.793 278.8 536.968 277.96 536.39 276.87C535.817 275.774 535.531 274.473 535.531 272.964C535.531 271.5 535.82 270.219 536.399 269.124C536.977 268.022 537.793 267.166 538.846 266.557C539.898 265.941 541.138 265.634 542.566 265.634C543.576 265.634 544.499 265.79 545.336 266.104C546.173 266.418 546.897 266.883 547.506 267.499C548.115 268.114 548.589 268.874 548.928 269.779C549.266 270.678 549.436 271.709 549.436 272.872V273.999H537.11V271.376H545.235C545.229 270.896 545.115 270.469 544.893 270.093C544.672 269.718 544.367 269.425 543.979 269.216C543.597 269 543.157 268.893 542.659 268.893C542.154 268.893 541.702 269.007 541.301 269.234C540.901 269.456 540.584 269.761 540.35 270.148C540.117 270.53 539.993 270.964 539.981 271.45V274.119C539.981 274.697 540.095 275.205 540.323 275.642C540.551 276.073 540.874 276.408 541.292 276.648C541.711 276.888 542.209 277.009 542.788 277.009C543.188 277.009 543.551 276.953 543.877 276.842C544.204 276.732 544.484 276.568 544.718 276.353C544.952 276.138 545.127 275.873 545.244 275.559L549.39 275.679C549.217 276.608 548.839 277.418 548.254 278.107C547.675 278.79 546.915 279.323 545.973 279.705C545.032 280.08 543.942 280.268 542.705 280.268ZM551.742 280V261.091H556.257V268.246H556.349C556.534 267.816 556.795 267.4 557.134 267C557.478 266.6 557.915 266.274 558.445 266.021C558.98 265.763 559.62 265.634 560.365 265.634C561.35 265.634 562.27 265.892 563.126 266.409C563.988 266.926 564.683 267.723 565.213 268.8C565.742 269.878 566.007 271.25 566.007 272.918C566.007 274.525 565.751 275.87 565.24 276.953C564.735 278.036 564.052 278.849 563.191 279.391C562.335 279.932 561.384 280.203 560.338 280.203C559.624 280.203 559.005 280.086 558.482 279.852C557.959 279.618 557.518 279.311 557.161 278.929C556.811 278.547 556.54 278.138 556.349 277.701H556.21V280H551.742ZM556.164 272.909C556.164 273.672 556.266 274.337 556.469 274.903C556.678 275.47 556.977 275.91 557.365 276.224C557.758 276.531 558.229 276.685 558.777 276.685C559.331 276.685 559.802 276.531 560.19 276.224C560.578 275.91 560.87 275.47 561.067 274.903C561.27 274.337 561.372 273.672 561.372 272.909C561.372 272.146 561.27 271.484 561.067 270.924C560.87 270.364 560.578 269.93 560.19 269.622C559.808 269.314 559.337 269.161 558.777 269.161C558.223 269.161 557.752 269.311 557.365 269.613C556.977 269.915 556.678 270.345 556.469 270.906C556.266 271.466 556.164 272.134 556.164 272.909ZM579.138 280.203C578.092 280.203 577.141 279.932 576.285 279.391C575.43 278.849 574.746 278.036 574.235 276.953C573.725 275.87 573.469 274.525 573.469 272.918C573.469 271.25 573.734 269.878 574.263 268.8C574.792 267.723 575.485 266.926 576.341 266.409C577.202 265.892 578.129 265.634 579.12 265.634C579.864 265.634 580.502 265.763 581.031 266.021C581.56 266.274 581.997 266.6 582.342 267C582.687 267.4 582.948 267.816 583.127 268.246H583.219V261.091H587.734V280H583.265V277.701H583.127C582.936 278.138 582.665 278.547 582.314 278.929C581.963 279.311 581.523 279.618 580.994 279.852C580.471 280.086 579.852 280.203 579.138 280.203ZM580.708 276.685C581.256 276.685 581.723 276.531 582.111 276.224C582.499 275.91 582.797 275.47 583.007 274.903C583.216 274.337 583.321 273.672 583.321 272.909C583.321 272.134 583.216 271.466 583.007 270.906C582.804 270.345 582.505 269.915 582.111 269.613C581.723 269.311 581.256 269.161 580.708 269.161C580.148 269.161 579.674 269.314 579.286 269.622C578.898 269.93 578.603 270.364 578.4 270.924C578.203 271.484 578.104 272.146 578.104 272.909C578.104 273.672 578.206 274.337 578.409 274.903C578.612 275.47 578.904 275.91 579.286 276.224C579.674 276.531 580.148 276.685 580.708 276.685ZM597.219 280.268C595.735 280.268 594.455 279.975 593.378 279.391C592.307 278.8 591.482 277.96 590.903 276.87C590.331 275.774 590.045 274.473 590.045 272.964C590.045 271.5 590.334 270.219 590.912 269.124C591.491 268.022 592.307 267.166 593.359 266.557C594.412 265.941 595.652 265.634 597.08 265.634C598.09 265.634 599.013 265.79 599.85 266.104C600.687 266.418 601.41 266.883 602.02 267.499C602.629 268.114 603.103 268.874 603.442 269.779C603.78 270.678 603.949 271.709 603.949 272.872V273.999H591.623V271.376H599.748C599.742 270.896 599.628 270.469 599.407 270.093C599.185 269.718 598.881 269.425 598.493 269.216C598.111 269 597.671 268.893 597.172 268.893C596.668 268.893 596.215 269.007 595.815 269.234C595.415 269.456 595.098 269.761 594.864 270.148C594.63 270.53 594.507 270.964 594.495 271.45V274.119C594.495 274.697 594.609 275.205 594.836 275.642C595.064 276.073 595.387 276.408 595.806 276.648C596.224 276.888 596.723 277.009 597.302 277.009C597.702 277.009 598.065 276.953 598.391 276.842C598.717 276.732 598.997 276.568 599.231 276.353C599.465 276.138 599.641 275.873 599.758 275.559L603.903 275.679C603.731 276.608 603.352 277.418 602.768 278.107C602.189 278.79 601.429 279.323 600.487 279.705C599.545 280.08 598.456 280.268 597.219 280.268ZM619.632 265.818L614.766 280H609.595L604.739 265.818H609.494L612.107 275.587H612.254L614.877 265.818H619.632ZM627.535 280.268C626.052 280.268 624.771 279.975 623.694 279.391C622.623 278.8 621.798 277.96 621.22 276.87C620.647 275.774 620.361 274.473 620.361 272.964C620.361 271.5 620.65 270.219 621.229 269.124C621.807 268.022 622.623 267.166 623.676 266.557C624.728 265.941 625.968 265.634 627.396 265.634C628.406 265.634 629.329 265.79 630.166 266.104C631.003 266.418 631.727 266.883 632.336 267.499C632.945 268.114 633.419 268.874 633.758 269.779C634.097 270.678 634.266 271.709 634.266 272.872V273.999H621.94V271.376H630.065C630.059 270.896 629.945 270.469 629.723 270.093C629.502 269.718 629.197 269.425 628.809 269.216C628.427 269 627.987 268.893 627.489 268.893C626.984 268.893 626.532 269.007 626.132 269.234C625.731 269.456 625.414 269.761 625.181 270.148C624.947 270.53 624.824 270.964 624.811 271.45V274.119C624.811 274.697 624.925 275.205 625.153 275.642C625.381 276.073 625.704 276.408 626.122 276.648C626.541 276.888 627.039 277.009 627.618 277.009C628.018 277.009 628.381 276.953 628.708 276.842C629.034 276.732 629.314 276.568 629.548 276.353C629.782 276.138 629.957 275.873 630.074 275.559L634.22 275.679C634.047 276.608 633.669 277.418 633.084 278.107C632.505 278.79 631.745 279.323 630.803 279.705C629.862 280.08 628.772 280.268 627.535 280.268ZM641.087 261.091V280H636.572V261.091H641.087ZM650.58 280.268C649.091 280.268 647.811 279.963 646.74 279.354C645.675 278.738 644.853 277.883 644.274 276.787C643.702 275.685 643.416 274.408 643.416 272.955C643.416 271.496 643.702 270.219 644.274 269.124C644.853 268.022 645.675 267.166 646.74 266.557C647.811 265.941 649.091 265.634 650.58 265.634C652.07 265.634 653.347 265.941 654.412 266.557C655.483 267.166 656.305 268.022 656.877 269.124C657.456 270.219 657.745 271.496 657.745 272.955C657.745 274.408 657.456 275.685 656.877 276.787C656.305 277.883 655.483 278.738 654.412 279.354C653.347 279.963 652.07 280.268 650.58 280.268ZM650.608 276.861C651.15 276.861 651.608 276.695 651.984 276.362C652.359 276.03 652.646 275.568 652.843 274.977C653.046 274.386 653.147 273.703 653.147 272.928C653.147 272.14 653.046 271.45 652.843 270.859C652.646 270.268 652.359 269.807 651.984 269.474C651.608 269.142 651.15 268.976 650.608 268.976C650.048 268.976 649.574 269.142 649.186 269.474C648.805 269.807 648.512 270.268 648.309 270.859C648.112 271.45 648.014 272.14 648.014 272.928C648.014 273.703 648.112 274.386 648.309 274.977C648.512 275.568 648.805 276.03 649.186 276.362C649.574 276.695 650.048 276.861 650.608 276.861ZM660.058 285.318V265.818H664.527V268.246H664.665C664.85 267.816 665.112 267.4 665.45 267C665.795 266.6 666.232 266.274 666.761 266.021C667.297 265.763 667.937 265.634 668.682 265.634C669.666 265.634 670.587 265.892 671.442 266.409C672.304 266.926 673 267.723 673.529 268.8C674.058 269.878 674.323 271.25 674.323 272.918C674.323 274.525 674.068 275.87 673.557 276.953C673.052 278.036 672.369 278.849 671.507 279.391C670.651 279.932 669.7 280.203 668.654 280.203C667.94 280.203 667.321 280.086 666.798 279.852C666.275 279.618 665.835 279.311 665.478 278.929C665.127 278.547 664.856 278.138 664.665 277.701H664.573V285.318H660.058ZM664.481 272.909C664.481 273.672 664.582 274.337 664.785 274.903C664.995 275.47 665.293 275.91 665.681 276.224C666.075 276.531 666.546 276.685 667.094 276.685C667.648 276.685 668.118 276.531 668.506 276.224C668.894 275.91 669.186 275.47 669.383 274.903C669.586 274.337 669.688 273.672 669.688 272.909C669.688 272.146 669.586 271.484 669.383 270.924C669.186 270.364 668.894 269.93 668.506 269.622C668.125 269.314 667.654 269.161 667.094 269.161C666.54 269.161 666.069 269.311 665.681 269.613C665.293 269.915 664.995 270.345 664.785 270.906C664.582 271.466 664.481 272.134 664.481 272.909ZM676.689 285.318V265.818H681.158V268.246H681.296C681.481 267.816 681.742 267.4 682.081 267C682.426 266.6 682.863 266.274 683.392 266.021C683.928 265.763 684.568 265.634 685.312 265.634C686.297 265.634 687.218 265.892 688.073 266.409C688.935 266.926 689.63 267.723 690.16 268.8C690.689 269.878 690.954 271.25 690.954 272.918C690.954 274.525 690.698 275.87 690.188 276.953C689.683 278.036 689 278.849 688.138 279.391C687.282 279.932 686.331 280.203 685.285 280.203C684.571 280.203 683.952 280.086 683.429 279.852C682.906 279.618 682.466 279.311 682.109 278.929C681.758 278.547 681.487 278.138 681.296 277.701H681.204V285.318H676.689ZM681.112 272.909C681.112 273.672 681.213 274.337 681.416 274.903C681.625 275.47 681.924 275.91 682.312 276.224C682.706 276.531 683.177 276.685 683.724 276.685C684.278 276.685 684.749 276.531 685.137 276.224C685.525 275.91 685.817 275.47 686.014 274.903C686.217 274.337 686.319 273.672 686.319 272.909C686.319 272.146 686.217 271.484 686.014 270.924C685.817 270.364 685.525 269.93 685.137 269.622C684.755 269.314 684.285 269.161 683.724 269.161C683.17 269.161 682.7 269.311 682.312 269.613C681.924 269.915 681.625 270.345 681.416 270.906C681.213 271.466 681.112 272.134 681.112 272.909ZM699.949 280.268C698.466 280.268 697.185 279.975 696.108 279.391C695.037 278.8 694.212 277.96 693.634 276.87C693.061 275.774 692.775 274.473 692.775 272.964C692.775 271.5 693.064 270.219 693.643 269.124C694.222 268.022 695.037 267.166 696.09 266.557C697.142 265.941 698.383 265.634 699.811 265.634C700.82 265.634 701.743 265.79 702.58 266.104C703.418 266.418 704.141 266.883 704.75 267.499C705.36 268.114 705.834 268.874 706.172 269.779C706.511 270.678 706.68 271.709 706.68 272.872V273.999H694.354V271.376H702.479C702.473 270.896 702.359 270.469 702.137 270.093C701.916 269.718 701.611 269.425 701.223 269.216C700.842 269 700.401 268.893 699.903 268.893C699.398 268.893 698.946 269.007 698.546 269.234C698.146 269.456 697.829 269.761 697.595 270.148C697.361 270.53 697.238 270.964 697.225 271.45V274.119C697.225 274.697 697.339 275.205 697.567 275.642C697.795 276.073 698.118 276.408 698.536 276.648C698.955 276.888 699.454 277.009 700.032 277.009C700.432 277.009 700.795 276.953 701.122 276.842C701.448 276.732 701.728 276.568 701.962 276.353C702.196 276.138 702.371 275.873 702.488 275.559L706.634 275.679C706.461 276.608 706.083 277.418 705.498 278.107C704.919 278.79 704.159 279.323 703.218 279.705C702.276 280.08 701.186 280.268 699.949 280.268ZM708.986 280V265.818H713.371V268.403H713.519C713.778 267.468 714.199 266.772 714.784 266.317C715.369 265.855 716.049 265.624 716.825 265.624C717.034 265.624 717.249 265.64 717.471 265.67C717.692 265.695 717.899 265.735 718.089 265.79V269.714C717.874 269.641 717.591 269.582 717.24 269.539C716.895 269.496 716.588 269.474 716.317 269.474C715.781 269.474 715.298 269.594 714.867 269.835C714.442 270.068 714.107 270.398 713.861 270.822C713.621 271.241 713.501 271.733 713.501 272.3V280H708.986Z" fill="#EAEAEB"/>
</svg>
